<svg width="80" height="80" viewBox="0 0 80 80" fill="none" xmlns="http://www.w3.org/2000/svg">
<path d="M78.794 64.9572L74.7468 61.1973C76.8565 58.2375 78.1051 54.6776 78.1051 50.8378C78.1051 40.4382 69.0204 31.9985 57.826 31.9985C46.6316 31.9985 37.5469 40.4382 37.5469 50.8378C37.5469 61.2373 46.6316 69.677 57.826 69.677C61.9593 69.677 65.7482 68.517 68.9773 66.5571L73.0245 70.317C73.8426 71.0769 74.8759 71.4369 75.9523 71.4369C77.0287 71.4369 78.062 71.0769 78.8801 70.317C80.387 68.877 80.387 66.4771 78.794 64.9572Z" fill="#292D32"/>
<path d="M73.883 8.07967V16.9593C73.883 20.1992 71.7303 24.239 69.5775 26.2789L68.8025 26.9189C68.1997 27.4389 67.2955 27.5589 66.5205 27.3189C65.6594 27.0389 64.7983 26.8389 63.9372 26.6389C62.0428 26.1989 60.0192 25.9989 57.9525 25.9989C43.0984 25.9989 31.043 37.1985 31.043 50.9979C31.043 55.5577 32.3777 60.0376 34.9179 63.8774C37.0706 67.2373 40.0845 70.0371 43.3567 71.9171C44.347 72.5171 44.7345 73.797 43.8734 74.517C43.572 74.757 43.2706 74.957 42.9692 75.157L36.9415 78.7968C31.3443 82.0367 23.6374 78.3968 23.6374 71.9171V50.5179C23.6374 47.6781 21.9152 44.0382 20.193 42.0383L3.87499 25.8789C1.72222 23.839 0 20.1992 0 17.7993V8.47966C0 3.63985 3.87499 0 8.56803 0H65.315C70.008 0 73.883 3.63985 73.883 8.07967Z" fill="#292D32"/>
</svg>
