<svg width="49" height="61" viewBox="0 0 49 61" fill="none" xmlns="http://www.w3.org/2000/svg">
<path d="M24.9242 54.4292C18.546 54.4292 12.1679 53.3988 6.11833 51.3381C3.81893 50.5305 2.06701 48.8874 1.30055 46.7431C0.506708 44.5988 0.780446 42.2317 2.03964 40.1153L5.18762 34.7963C5.84459 33.6823 6.44682 31.4545 6.44682 30.1456V22.0976C6.44682 11.738 14.7411 3.30005 24.9242 3.30005C35.1072 3.30005 43.4015 11.738 43.4015 22.0976V30.1456C43.4015 31.4266 44.0037 33.6823 44.6607 34.8241L47.7813 40.1153C48.9584 42.1203 49.1774 44.5431 48.3835 46.7431C47.5897 48.9431 45.8651 50.614 43.7026 51.3381C37.6804 53.3988 31.3023 54.4292 24.9242 54.4292ZM24.9242 7.47727C17.0131 7.47727 10.5529 14.0216 10.5529 22.0976V30.1456C10.5529 32.1785 9.73167 35.1861 8.71884 36.9406L5.57086 42.2596C4.96863 43.2899 4.80439 44.376 5.16025 45.295C5.48874 46.2419 6.30995 46.9659 7.43227 47.3558C18.8745 51.2545 31.0012 51.2545 42.4434 47.3558C43.4289 47.0216 44.1953 46.2697 44.5512 45.2672C44.907 44.2646 44.8249 43.1786 44.2775 42.2596L41.1295 36.9406C40.0893 35.1304 39.2954 32.1507 39.2954 30.1178V22.0976C39.2954 14.0216 32.8626 7.47727 24.9242 7.47727Z" fill="black"/>
<path d="M30.0167 8.22979C29.8251 8.22979 29.6335 8.20195 29.4419 8.14625C28.648 7.92346 27.8816 7.75638 27.1425 7.64498C24.8157 7.33865 22.571 7.50574 20.4633 8.14625C19.6968 8.39688 18.8757 8.14625 18.3556 7.56144C17.8355 6.97663 17.6712 6.14118 17.9723 5.38928C19.0947 2.46522 21.8319 0.543701 24.9526 0.543701C28.0732 0.543701 30.8105 2.43738 31.9329 5.38928C32.2066 6.14118 32.0697 6.97663 31.5496 7.56144C31.139 8.00701 30.5642 8.22979 30.0167 8.22979Z" fill="black"/>
<path d="M24.9233 60.779C22.2133 60.779 19.5854 59.6651 17.6693 57.7157C15.7532 55.7663 14.6582 53.0929 14.6582 50.3359H18.7643C18.7643 51.979 19.4212 53.5942 20.5709 54.7638C21.7206 55.9334 23.3082 56.6018 24.9233 56.6018C28.3176 56.6018 31.0824 53.7891 31.0824 50.3359H35.1884C35.1884 56.1005 30.5897 60.779 24.9233 60.779Z" fill="black"/>
</svg>
