<svg width="52" height="53" viewBox="0 0 52 53" fill="none" xmlns="http://www.w3.org/2000/svg">
<path d="M49.3704 13.4761C47.1718 11.0447 43.4989 9.82903 38.1705 9.82903H37.5497V9.72556C37.5497 5.3801 37.5497 0 27.8242 0H23.8925C14.167 0 14.167 5.40597 14.167 9.72556V9.85489H13.5462C8.192 9.85489 4.54491 11.0706 2.34631 13.502C-0.214408 16.3472 -0.136811 20.1754 0.121848 22.7877L0.147714 22.9688L0.348071 25.0725C0.384956 25.4599 0.593616 25.8099 0.919241 26.023C1.5395 26.4289 2.57763 27.098 3.19989 27.4436C3.56201 27.6764 3.95 27.8833 4.33798 28.0903C8.76105 30.5216 13.6238 32.1512 18.5642 32.953C18.797 35.3844 19.8575 38.2297 25.5221 38.2297C31.1867 38.2297 32.299 35.4103 32.48 32.9013C37.7567 32.0477 42.8522 30.2112 47.4563 27.5212C47.6115 27.4436 47.715 27.366 47.8443 27.2884C48.8704 26.7085 49.9351 25.9938 50.9056 25.2939C51.1978 25.0828 51.3849 24.7569 51.4247 24.3987L51.4656 24.0293L51.5949 22.8136C51.6208 22.6584 51.6208 22.5291 51.6466 22.348C51.8535 19.7357 51.8018 16.1662 49.3704 13.4761ZM28.6777 31.1942C28.6777 33.9359 28.6777 34.3498 25.4962 34.3498C22.3147 34.3498 22.3147 33.8583 22.3147 31.22V27.9609H28.6777V31.1942ZM17.8658 9.82903V9.72556C17.8658 5.32837 17.8658 3.69882 23.8925 3.69882H27.8242C33.8509 3.69882 33.8509 5.35423 33.8509 9.72556V9.85489H17.8658V9.82903Z" fill="white"/>
<path d="M48.8074 30.9493C49.722 30.514 50.7755 31.239 50.6839 32.2478L49.7553 42.4746C49.2122 47.6478 47.0912 52.9244 35.7102 52.9244H16.0005C4.61953 52.9244 2.49853 47.6478 1.95534 42.5005L1.07407 32.8065C0.983433 31.8093 2.01279 31.0851 2.9249 31.4979C5.87211 32.8313 11.3121 35.197 14.6725 36.0772C15.0975 36.1884 15.4412 36.4926 15.6273 36.8907C17.1973 40.2483 20.6024 42.0349 25.519 42.0349C30.3875 42.0349 33.8354 40.1795 35.4107 36.8136C35.5969 36.4153 35.9412 36.1111 36.3664 35.9994C39.9346 35.0604 45.7249 32.4159 48.8074 30.9493Z" fill="white"/>
</svg>
