<svg width="49" height="50" viewBox="0 0 49 50" fill="none" xmlns="http://www.w3.org/2000/svg">
<path d="M32.439 49.0937H32.1346C21.7378 49.0937 16.7267 44.9249 15.8603 35.5866C15.7666 34.6099 16.4691 33.7285 17.4526 33.6332C18.3892 33.5379 19.2791 34.2764 19.3727 35.2531C20.0518 42.7332 23.5174 45.5204 32.158 45.5204H32.4624C41.9929 45.5204 45.3648 42.09 45.3648 32.3944V16.8624C45.3648 7.16678 41.9929 3.7364 32.4624 3.7364H32.158C23.4706 3.7364 20.005 6.57123 19.3727 14.1943C19.2556 15.171 18.4361 15.9095 17.4526 15.8142C16.4691 15.7427 15.7666 14.8613 15.8369 13.8846C16.633 4.40342 21.6675 0.163086 32.1346 0.163086H32.439C43.9364 0.163086 48.8538 5.16573 48.8538 16.8624V32.3944C48.8538 44.0911 43.9364 49.0937 32.439 49.0937Z" fill="black"/>
<path d="M31.8746 26.4151H5.22692C4.26686 26.4151 3.4707 25.6052 3.4707 24.6285C3.4707 23.6517 4.26686 22.8418 5.22692 22.8418H31.8746C32.8346 22.8418 33.6308 23.6517 33.6308 24.6285C33.6308 25.6052 32.8346 26.4151 31.8746 26.4151Z" fill="black"/>
<path d="M10.4483 34.3956C10.0034 34.3956 9.55852 34.2289 9.20728 33.8715L1.36282 25.8911C0.683748 25.2003 0.683748 24.0568 1.36282 23.366L9.20728 15.3856C9.88635 14.6947 11.0103 14.6947 11.6894 15.3856C12.3685 16.0764 12.3685 17.2199 11.6894 17.9107L5.08601 24.6286L11.6894 31.3464C12.3685 32.0372 12.3685 33.1807 11.6894 33.8715C11.3616 34.2289 10.8933 34.3956 10.4483 34.3956Z" fill="black"/>
</svg>
