<svg width="52" height="53" viewBox="0 0 52 53" fill="none" xmlns="http://www.w3.org/2000/svg">
<path d="M40.3157 14.8533C40.1714 14.8288 40.0031 14.8288 39.8589 14.8533C36.5411 14.731 33.8965 11.9672 33.8965 8.54298C33.8965 5.0454 36.6613 2.23267 40.0993 2.23267C43.5373 2.23267 46.3021 5.06986 46.3021 8.54298C46.2781 11.9672 43.6335 14.731 40.3157 14.8533Z" stroke="black" stroke-width="3" stroke-linecap="round" stroke-linejoin="round"/>
<path d="M37.8397 32.6591C41.1334 33.2216 44.7638 32.6346 47.3122 30.8981C50.7021 28.5989 50.7021 24.8323 47.3122 22.5332C44.7397 20.7967 41.0613 20.2097 37.7676 20.7967" stroke="black" stroke-width="3" stroke-linecap="round" stroke-linejoin="round"/>
<path d="M11.3907 14.8533C11.535 14.8288 11.7033 14.8288 11.8475 14.8533C15.1653 14.731 17.8099 11.9672 17.8099 8.54298C17.8099 5.0454 15.0451 2.23267 11.6071 2.23267C8.16912 2.23267 5.4043 5.06986 5.4043 8.54298C5.42834 11.9672 8.07295 14.731 11.3907 14.8533Z" stroke="black" stroke-width="3" stroke-linecap="round" stroke-linejoin="round"/>
<path d="M13.8685 32.6591C10.5747 33.2216 6.9444 32.6346 4.39595 30.8981C1.00604 28.5989 1.00604 24.8323 4.39595 22.5332C6.96844 20.7967 10.6469 20.2097 13.9406 20.7967" stroke="black" stroke-width="3" stroke-linecap="round" stroke-linejoin="round"/>
<path d="M25.8919 33.1239C25.7477 33.0994 25.5794 33.0994 25.4351 33.1239C22.1173 33.0016 19.4727 30.2378 19.4727 26.8136C19.4727 23.316 22.2375 20.5032 25.6755 20.5032C29.1135 20.5032 31.8784 23.3404 31.8784 26.8136C31.8543 30.2378 29.2097 33.0261 25.8919 33.1239Z" stroke="black" stroke-width="3" stroke-linecap="round" stroke-linejoin="round"/>
<path d="M32.8884 40.8278C29.0657 38.2351 22.7427 38.2351 18.896 40.8278C15.506 43.1269 15.506 46.8935 18.896 49.1926C22.7427 51.8097 29.0417 51.8097 32.8884 49.1926" stroke="black" stroke-width="3" stroke-linecap="round" stroke-linejoin="round"/>
</svg>
