<svg width="49" height="50" viewBox="0 0 49 50" fill="none" xmlns="http://www.w3.org/2000/svg">
<path d="M14.4104 46.6182C14.3384 46.6182 14.2424 46.667 14.1704 46.667C9.51448 44.3231 5.72251 40.441 3.39453 35.7044C3.39453 35.6311 3.44253 35.5335 3.44253 35.4602C6.37051 36.3392 9.39448 36.9984 12.3945 37.5111C12.9225 40.5875 13.5465 43.6395 14.4104 46.6182Z" fill="#010101"/>
<path d="M46.3064 35.7288C43.9304 40.5875 39.9704 44.5184 35.1465 46.8868C36.0585 43.786 36.8265 40.6608 37.3305 37.5111C40.3544 36.9984 43.3304 36.3392 46.2584 35.4602C46.2344 35.5579 46.3064 35.6555 46.3064 35.7288Z" fill="#010101"/>
<path d="M46.4984 14.3909C43.4744 13.4631 40.4264 12.7062 37.3305 12.1691C36.8265 9.01946 36.0825 5.89425 35.1465 2.84229C40.1144 5.25944 44.1224 9.33687 46.4984 14.3909Z" fill="#010101"/>
<path d="M14.4149 3.10645C13.551 6.08517 12.927 9.11272 12.423 12.1891C9.32698 12.6774 6.25501 13.4587 3.20703 14.3865C5.53501 9.47896 9.39898 5.45036 14.1749 3.0332C14.2469 3.0332 14.3429 3.10645 14.4149 3.10645Z" fill="#010101"/>
<path d="M33.2342 11.6553C27.6663 11.0205 22.0503 11.0205 16.4824 11.6553C17.0824 8.31035 17.8504 4.9654 18.9304 1.74252C18.9784 1.54719 18.9544 1.4007 18.9784 1.20537C20.8743 0.741475 22.8183 0.448486 24.8583 0.448486C26.8743 0.448486 28.8423 0.741475 30.7143 1.20537C30.7383 1.4007 30.7383 1.54719 30.7863 1.74252C31.8663 4.98981 32.6342 8.31035 33.2342 11.6553Z" fill="#010101"/>
<path d="M11.8694 33.3893C8.55746 32.7789 5.29348 31.9976 2.12551 30.8989C1.93351 30.8501 1.78951 30.8745 1.59751 30.8501C1.14151 28.9212 0.853516 26.9435 0.853516 24.8682C0.853516 22.8173 1.14151 20.8152 1.59751 18.9108C1.78951 18.8864 1.93351 18.8864 2.12551 18.8376C5.31748 17.7633 8.55746 16.9576 11.8694 16.3472C11.2694 22.0116 11.2694 27.7249 11.8694 33.3893Z" fill="#010101"/>
<path d="M48.8538 24.8682C48.8538 26.9435 48.5658 28.9212 48.1098 30.8501C47.9178 30.8745 47.7738 30.8501 47.5818 30.8989C44.3898 31.9732 41.1259 32.7789 37.8379 33.3893C38.4619 27.7249 38.4619 22.0116 37.8379 16.3472C41.1259 16.9576 44.4138 17.7389 47.5818 18.8376C47.7738 18.8864 47.9178 18.9108 48.1098 18.9108C48.5658 20.8396 48.8538 22.8173 48.8538 24.8682Z" fill="#010101"/>
<path d="M33.2342 38.0735C32.6342 41.4429 31.8663 44.7634 30.7863 47.9863C30.7383 48.1816 30.7383 48.3281 30.7143 48.5234C28.8423 48.9873 26.8743 49.2803 24.8583 49.2803C22.8183 49.2803 20.8743 48.9873 18.9784 48.5234C18.9544 48.3281 18.9784 48.1816 18.9304 47.9863C17.8744 44.739 17.0824 41.4429 16.4824 38.0735C19.2664 38.3909 22.0503 38.6106 24.8583 38.6106C27.6663 38.6106 30.4743 38.3909 33.2342 38.0735Z" fill="#010101"/>
<path d="M33.8857 34.0526C27.8831 34.8231 21.8246 34.8231 15.8219 34.0526C15.0646 27.9459 15.0646 21.7824 15.8219 15.6757C21.8246 14.9053 27.8831 14.9053 33.8857 15.6757C34.6431 21.7824 34.6431 27.9459 33.8857 34.0526Z" fill="#010101"/>
</svg>
