<svg width="52" height="58" viewBox="0 0 52 58" fill="none" xmlns="http://www.w3.org/2000/svg">
<path d="M24.1799 28.9224C31.31 28.9224 37.0902 23.0421 37.0902 15.7884C37.0902 8.53463 31.31 2.6543 24.1799 2.6543C17.0497 2.6543 11.2695 8.53463 11.2695 15.7884C11.2695 23.0421 17.0497 28.9224 24.1799 28.9224Z" stroke="black" stroke-width="4" stroke-linecap="round" stroke-linejoin="round"/>
<path d="M2 55.1907C2 45.0249 11.941 36.803 24.1799 36.803C26.6587 36.803 29.06 37.1445 31.3064 37.7749" stroke="black" stroke-width="4" stroke-linecap="round" stroke-linejoin="round"/>
<path d="M49.9983 44.6833C49.9983 45.5239 49.895 46.3382 49.6885 47.1262C49.4561 48.1769 49.043 49.2014 48.5007 50.0945C46.7191 53.1416 43.4399 55.1905 39.6701 55.1905C37.0105 55.1905 34.6092 54.1661 32.8018 52.4849C32.0271 51.8019 31.3558 50.9876 30.8394 50.0945C29.884 48.5184 29.3418 46.6534 29.3418 44.6833C29.3418 41.8463 30.4521 39.2458 32.2595 37.3545C34.1444 35.3844 36.7781 34.176 39.6701 34.176C42.7169 34.176 45.4797 35.5157 47.3388 37.6697C48.9913 39.5347 49.9983 42.0039 49.9983 44.6833Z" stroke="black" stroke-width="4" stroke-miterlimit="10" stroke-linecap="round" stroke-linejoin="round"/>
<path d="M43.5168 44.6309H35.8223" stroke="black" stroke-width="4" stroke-miterlimit="10" stroke-linecap="round" stroke-linejoin="round"/>
<path d="M39.6699 40.7957V48.6498" stroke="black" stroke-width="4" stroke-miterlimit="10" stroke-linecap="round" stroke-linejoin="round"/>
</svg>
