<svg width="49" height="51" viewBox="0 0 49 51" fill="none" xmlns="http://www.w3.org/2000/svg">
<path d="M41.0543 16.5205V21.6479C39.9983 21.5014 38.7983 21.4281 37.4543 21.4037V16.5205C37.4543 8.82953 35.3183 3.70218 24.8543 3.70218C14.3903 3.70218 12.2543 8.82953 12.2543 16.5205V21.4037C10.9103 21.4281 9.7103 21.5014 8.6543 21.6479V16.5205C8.6543 9.43993 10.3343 0.0397949 24.8543 0.0397949C39.3743 0.0397949 41.0543 9.43993 41.0543 16.5205Z" fill="black"/>
<path d="M41.0535 21.648C39.9975 21.5015 38.7975 21.4282 37.4535 21.4038H12.2535C10.9095 21.4282 9.70952 21.5015 8.65352 21.648C2.53352 22.4049 0.853516 25.4569 0.853516 33.6118V38.495C0.853516 48.2613 3.25352 50.7029 12.8535 50.7029H36.8535C46.4535 50.7029 48.8535 48.2613 48.8535 38.495V33.6118C48.8535 25.4569 47.1735 22.4049 41.0535 21.648ZM16.9575 37.7869C16.5015 38.2264 15.8775 38.495 15.2535 38.495C14.9415 38.495 14.6295 38.4217 14.3415 38.2996C14.0295 38.1775 13.7895 38.0066 13.5495 37.7869C13.1175 37.323 12.8535 36.6882 12.8535 36.0534C12.8535 35.736 12.9255 35.4185 13.0455 35.1256C13.1655 34.8326 13.3335 34.564 13.5495 34.3198C13.7895 34.1001 14.0295 33.9292 14.3415 33.8071C15.2295 33.4164 16.2855 33.6362 16.9575 34.3198C17.1735 34.564 17.3415 34.8326 17.4615 35.1256C17.5815 35.4185 17.6535 35.736 17.6535 36.0534C17.6535 36.6882 17.3895 37.323 16.9575 37.7869ZM27.0615 36.9812C26.9415 37.2742 26.7735 37.5427 26.5575 37.7869C26.1015 38.2264 25.4775 38.495 24.8535 38.495C24.2055 38.495 23.6055 38.2264 23.1495 37.7869C22.9335 37.5427 22.7655 37.2742 22.6455 36.9812C22.5255 36.6882 22.4535 36.3708 22.4535 36.0534C22.4535 35.3941 22.7175 34.7837 23.1495 34.3198C24.0375 33.4164 25.6455 33.4164 26.5575 34.3198C26.9895 34.7837 27.2535 35.3941 27.2535 36.0534C27.2535 36.3708 27.1815 36.6882 27.0615 36.9812ZM36.1575 37.7869C35.7015 38.2264 35.0775 38.495 34.4535 38.495C33.8295 38.495 33.2055 38.2264 32.7495 37.7869C32.3175 37.323 32.0535 36.7126 32.0535 36.0534C32.0535 35.3941 32.3175 34.7837 32.7495 34.3198C33.6615 33.4164 35.2695 33.4164 36.1575 34.3198C36.2535 34.4419 36.3495 34.564 36.4455 34.7105C36.5415 34.8326 36.6135 34.9791 36.6615 35.1256C36.7335 35.2721 36.7815 35.4185 36.8055 35.565C36.8295 35.736 36.8535 35.9069 36.8535 36.0534C36.8535 36.6882 36.5895 37.323 36.1575 37.7869Z" fill="black"/>
</svg>
