<svg width="41" height="41" viewBox="0 0 41 41" fill="none" xmlns="http://www.w3.org/2000/svg">
<path d="M20.5 39.0047C30.7172 39.0047 39 30.7218 39 20.5046C39 10.2874 30.7172 2.00464 20.5 2.00464C10.2827 2.00464 2 10.2874 2 20.5046C2 30.7218 10.2827 39.0047 20.5 39.0047Z" stroke="#292D32" stroke-width="3" stroke-linecap="round" stroke-linejoin="round"/>
<path d="M13.1001 3.85461H14.9501C11.3426 14.6586 11.3426 26.3506 14.9501 37.1546H13.1001" stroke="#292D32" stroke-width="3" stroke-linecap="round" stroke-linejoin="round"/>
<path d="M26.0503 3.85461C29.6578 14.6586 29.6578 26.3506 26.0503 37.1546" stroke="#292D32" stroke-width="3" stroke-linecap="round" stroke-linejoin="round"/>
<path d="M3.84985 27.9048V26.0548C14.6539 29.6623 26.3459 29.6623 37.1499 26.0548V27.9048" stroke="#292D32" stroke-width="3" stroke-linecap="round" stroke-linejoin="round"/>
<path d="M3.84985 14.9546C14.6539 11.3471 26.3459 11.3471 37.1499 14.9546" stroke="#292D32" stroke-width="3" stroke-linecap="round" stroke-linejoin="round"/>
</svg>
