<svg width="52" height="53" viewBox="0 0 52 53" fill="none" xmlns="http://www.w3.org/2000/svg">
<path d="M49.3704 13.4815C47.1718 11.0501 43.4989 9.8344 38.1705 9.8344H37.5497V9.73094C37.5497 5.38547 37.5497 0.00537109 27.8242 0.00537109H23.8925C14.167 0.00537109 14.167 5.41134 14.167 9.73094V9.86027H13.5462C8.192 9.86027 4.54491 11.076 2.34631 13.5074C-0.214408 16.3526 -0.136811 20.1808 0.121848 22.7931L0.147714 22.9742L0.348071 25.0779C0.384956 25.4653 0.593616 25.8153 0.919241 26.0284C1.5395 26.4343 2.57763 27.1034 3.19989 27.449C3.56201 27.6818 3.95 27.8887 4.33798 28.0956C8.76105 30.527 13.6238 32.1566 18.5642 32.9584C18.797 35.3898 19.8575 38.2351 25.5221 38.2351C31.1867 38.2351 32.299 35.4157 32.48 32.9067C37.7567 32.0531 42.8522 30.2166 47.4563 27.5266C47.6115 27.449 47.715 27.3714 47.8443 27.2938C48.8704 26.7139 49.9351 25.9992 50.9056 25.2993C51.1978 25.0882 51.3849 24.7623 51.4247 24.4041L51.4656 24.0347L51.5949 22.819C51.6208 22.6638 51.6208 22.5345 51.6466 22.3534C51.8535 19.741 51.8018 16.1715 49.3704 13.4815ZM28.6777 31.1995C28.6777 33.9413 28.6777 34.3552 25.4962 34.3552C22.3147 34.3552 22.3147 33.8637 22.3147 31.2254V27.9663H28.6777V31.1995ZM17.8658 9.8344V9.73094C17.8658 5.33374 17.8658 3.70419 23.8925 3.70419H27.8242C33.8509 3.70419 33.8509 5.35961 33.8509 9.73094V9.86027H17.8658V9.8344Z" fill="#292D32"/>
<path d="M48.8072 30.9554C49.7219 30.5201 50.7754 31.2451 50.6838 32.2539L49.7552 42.4807C49.212 47.6539 47.091 52.9305 35.7101 52.9305H16.0004C4.6194 52.9305 2.4984 47.6539 1.95522 42.5066L1.07395 32.8126C0.983311 31.8154 2.01267 31.0912 2.92478 31.504C5.87198 32.8374 11.3119 35.2031 14.6724 36.0833C15.0974 36.1945 15.4411 36.4987 15.6272 36.8968C17.1972 40.2544 20.6022 42.041 25.5189 42.041C30.3874 42.041 33.8353 40.1856 35.4105 36.8197C35.5968 36.4214 35.941 36.1172 36.3663 36.0055C39.9345 35.0665 45.7248 32.422 48.8072 30.9554Z" fill="#292D32"/>
</svg>
