<svg width="48" height="48" viewBox="0 0 48 48" fill="none" xmlns="http://www.w3.org/2000/svg">
<path d="M42.9 22.95C42.9 33.975 33.975 42.9 22.95 42.9C11.925 42.9 3 33.975 3 22.95C3 11.925 11.925 3 22.95 3" fill="#364E65"/>
<path d="M42.9 22.95C42.9 33.975 33.975 42.9 22.95 42.9C11.925 42.9 3 33.975 3 22.95C3 11.925 11.925 3 22.95 3" stroke="white" stroke-width="5" stroke-linecap="round" stroke-linejoin="round"/>
<path d="M45 44.9998L40.8 40.7998L45 44.9998Z" fill="white"/>
<path d="M45 44.9998L40.8 40.7998" stroke="white" stroke-width="5" stroke-linecap="round" stroke-linejoin="round"/>
<path d="M29.2498 11.6733C28.5148 9.36327 29.3759 6.48627 31.8119 5.70927C33.0929 5.28927 34.6678 5.64627 35.5708 6.88527C36.4108 5.60427 38.0489 5.31027 39.3088 5.70927C41.7449 6.48627 42.6058 9.36327 41.8708 11.6733C40.7158 15.3483 36.6838 17.2593 35.5708 17.2593C34.4368 17.2593 30.4468 15.3903 29.2498 11.6733Z" fill="white" stroke="white" stroke-width="5" stroke-linecap="round" stroke-linejoin="round"/>
</svg>
