<svg width="49" height="49" viewBox="0 0 49 49" fill="none" xmlns="http://www.w3.org/2000/svg">
<path d="M24.8311 33.5306C20.214 33.5306 16.4668 29.5056 16.4668 24.5462C16.4668 19.5868 20.214 15.5618 24.8311 15.5618C29.4482 15.5618 33.1954 19.5868 33.1954 24.5462C33.1954 29.5056 29.4482 33.5306 24.8311 33.5306ZM24.8311 19.1555C22.0653 19.1555 19.8125 21.5753 19.8125 24.5462C19.8125 27.517 22.0653 29.9369 24.8311 29.9369C27.5969 29.9369 29.8497 27.517 29.8497 24.5462C29.8497 21.5753 27.5969 19.1555 24.8311 19.1555Z" fill="black"/>
<path d="M31.9911 48.9598C31.5227 48.9598 31.0543 48.8879 30.5859 48.7681C29.203 48.3608 28.0431 47.4264 27.307 46.1087L27.0394 45.6295C25.7234 43.1858 23.9167 43.1858 22.6007 45.6295L22.3554 46.0848C21.6193 47.4264 20.4595 48.3848 19.0766 48.7681C17.6714 49.1754 16.2215 48.9598 14.9948 48.1691L11.1583 45.7973C9.79775 44.9587 8.81634 43.5931 8.39255 41.9399C7.99106 40.2868 8.19181 38.5858 8.97247 37.1243C9.61931 35.9024 9.79775 34.8003 9.41857 34.1055C9.03939 33.4107 8.08028 33.0034 6.7643 33.0034C3.50779 33.0034 0.853516 30.1524 0.853516 26.6544V22.4377C0.853516 18.9398 3.50779 16.0887 6.7643 16.0887C8.08028 16.0887 9.03939 15.6814 9.41857 14.9866C9.79775 14.2919 9.64162 13.1898 8.97247 11.9679C8.19181 10.5064 7.99106 8.7814 8.39255 7.15223C8.79404 5.49909 9.77545 4.13346 11.1583 3.29491L15.0171 0.923022C17.5375 -0.682196 20.861 0.252184 22.3777 3.00741L22.6453 3.48658C23.9613 5.93034 25.768 5.93034 27.084 3.48658L27.3294 3.03137C28.8461 0.252184 32.1695 -0.682196 34.7123 0.94698L38.5487 3.31887C39.9093 4.15742 40.8907 5.52305 41.3145 7.17619C41.716 8.82932 41.5152 10.5304 40.7346 11.9918C40.0877 13.2137 39.9093 14.3158 40.2885 15.0106C40.6676 15.7054 41.6268 16.1127 42.9427 16.1127C46.1992 16.1127 48.8535 18.9638 48.8535 22.4617V26.6784C48.8535 30.1763 46.1992 33.0274 42.9427 33.0274C41.6268 33.0274 40.6676 33.4347 40.2885 34.1295C39.9093 34.8243 40.0654 35.9264 40.7346 37.1482C41.5152 38.6097 41.7383 40.3347 41.3145 41.9639C40.913 43.617 39.9316 44.9827 38.5487 45.8212L34.6899 48.1931C33.8424 48.6962 32.9279 48.9598 31.9911 48.9598ZM24.8312 40.0951C26.8163 40.0951 28.6676 41.4368 29.939 43.8087L30.1844 44.2639C30.452 44.767 30.8981 45.1264 31.4334 45.2702C31.9688 45.4139 32.5041 45.342 32.9502 45.0545L36.8089 42.6587C37.3888 42.2993 37.8349 41.7004 38.0134 40.9816C38.1918 40.2628 38.1026 39.5201 37.768 38.8972C36.4966 36.5493 36.3405 34.1295 37.3219 32.2847C38.3033 30.4399 40.3331 29.3857 42.8758 29.3857C44.3033 29.3857 45.4409 28.1638 45.4409 26.6305V22.4138C45.4409 20.9044 44.3033 19.6586 42.8758 19.6586C40.3331 19.6586 38.3033 18.6044 37.3219 16.7596C36.3405 14.9148 36.4966 12.495 37.768 10.147C38.1026 9.52412 38.1918 8.7814 38.0134 8.06265C37.8349 7.34389 37.4111 6.76889 36.8312 6.38555L32.9725 4.01367C32.0134 3.39075 30.742 3.75012 30.1621 4.8043L29.9167 5.25951C28.6453 7.6314 26.794 8.97307 24.8089 8.97307C22.8238 8.97307 20.9725 7.6314 19.7011 5.25951L19.4557 4.78034C18.8981 3.77408 17.6491 3.4147 16.6899 4.01367L12.8312 6.40951C12.2513 6.76889 11.8052 7.36785 11.6267 8.08661C11.4483 8.80536 11.5375 9.54807 11.8721 10.171C13.1435 12.5189 13.2996 14.9387 12.3182 16.7835C11.3368 18.6283 9.30705 19.6825 6.7643 19.6825C5.33679 19.6825 4.19924 20.9044 4.19924 22.4377V26.6544C4.19924 28.1638 5.33679 29.4097 6.7643 29.4097C9.30705 29.4097 11.3368 30.4638 12.3182 32.3086C13.2996 34.1534 13.1435 36.5732 11.8721 38.9212C11.5375 39.5441 11.4483 40.2868 11.6267 41.0056C11.8052 41.7243 12.229 42.2993 12.8089 42.6827L16.6676 45.0545C17.136 45.366 17.6937 45.4379 18.2067 45.2941C18.742 45.1504 19.1881 44.767 19.4781 44.2639L19.7234 43.8087C20.9948 41.4608 22.8461 40.0951 24.8312 40.0951Z" fill="black"/>
</svg>
