<svg width="36" height="36" viewBox="0 0 36 36" fill="none" xmlns="http://www.w3.org/2000/svg">
<path d="M18 0C8.082 0 0 8.082 0 18C0 27.918 8.082 36 18 36C27.918 36 36 27.918 36 18C36 8.082 27.918 0 18 0ZM23.022 18.954L16.668 25.308C16.398 25.578 16.056 25.704 15.714 25.704C15.372 25.704 15.03 25.578 14.76 25.308C14.238 24.786 14.238 23.922 14.76 23.4L20.16 18L14.76 12.6C14.238 12.078 14.238 11.214 14.76 10.692C15.282 10.17 16.146 10.17 16.668 10.692L23.022 17.046C23.562 17.568 23.562 18.432 23.022 18.954Z" fill="white"/>
</svg>
