<svg width="53" height="54" viewBox="0 0 53 54" fill="none" xmlns="http://www.w3.org/2000/svg">
<path d="M25.0425 27.3607C32.1755 27.3607 37.9581 21.895 37.9581 15.1528C37.9581 8.41052 32.1755 2.94482 25.0425 2.94482C17.9095 2.94482 12.127 8.41052 12.127 15.1528C12.127 21.895 17.9095 27.3607 25.0425 27.3607Z" stroke="black" stroke-width="4" stroke-linecap="round" stroke-linejoin="round"/>
<path d="M43.6701 36.4923L34.5256 45.1358C34.164 45.4777 33.8282 46.1122 33.7507 46.5761L33.2599 49.8723C33.0791 51.0687 33.9574 51.8988 35.2231 51.7279L38.7103 51.264C39.2011 51.1907 39.8985 50.8733 40.2343 50.5315L49.3785 41.8883C50.9542 40.3989 51.7033 38.6654 49.3785 36.4679C47.0796 34.2949 45.2458 35.003 43.6701 36.4923Z" stroke="black" stroke-width="4" stroke-miterlimit="10" stroke-linecap="round" stroke-linejoin="round"/>
<path d="M42.3516 37.7375C43.1265 40.3745 45.2961 42.4254 48.0858 43.1579" stroke="black" stroke-width="4" stroke-miterlimit="10" stroke-linecap="round" stroke-linejoin="round"/>
<path d="M2.85352 51.7764C2.85352 42.3275 12.7986 34.6853 25.0424 34.6853C27.7289 34.6853 30.312 35.0515 32.7143 35.7352" stroke="black" stroke-width="4" stroke-linecap="round" stroke-linejoin="round"/>
</svg>
