<svg width="36" height="37" viewBox="0 0 36 37" fill="none" xmlns="http://www.w3.org/2000/svg">
<path d="M18 0.00415039C8.082 0.00415039 0 8.08615 0 18.0042C0 27.9222 8.082 36.0042 18 36.0042C27.918 36.0042 36 27.9222 36 18.0042C36 8.08615 27.918 0.00415039 18 0.00415039ZM23.022 18.9582L16.668 25.3122C16.398 25.5822 16.056 25.7082 15.714 25.7082C15.372 25.7082 15.03 25.5822 14.76 25.3122C14.238 24.7902 14.238 23.9262 14.76 23.4042L20.16 18.0042L14.76 12.6042C14.238 12.0822 14.238 11.2182 14.76 10.6962C15.282 10.1742 16.146 10.1742 16.668 10.6962L23.022 17.0502C23.562 17.5722 23.562 18.4362 23.022 18.9582Z" fill="#0C283C"/>
</svg>
