<svg width="41" height="41" viewBox="0 0 41 41" fill="none" xmlns="http://www.w3.org/2000/svg">
<path d="M20.5 39C30.7172 39 39 30.7172 39 20.5C39 10.2827 30.7172 2 20.5 2C10.2827 2 2 10.2827 2 20.5C2 30.7172 10.2827 39 20.5 39Z" stroke="white" stroke-width="3" stroke-linecap="round" stroke-linejoin="round"/>
<path d="M13.1001 3.84961H14.9501C11.3426 14.6536 11.3426 26.3456 14.9501 37.1496H13.1001" stroke="white" stroke-width="3" stroke-linecap="round" stroke-linejoin="round"/>
<path d="M26.0503 3.84961C29.6578 14.6536 29.6578 26.3456 26.0503 37.1496" stroke="white" stroke-width="3" stroke-linecap="round" stroke-linejoin="round"/>
<path d="M3.84998 27.9008V26.0508C14.654 29.6583 26.346 29.6583 37.15 26.0508V27.9008" stroke="white" stroke-width="3" stroke-linecap="round" stroke-linejoin="round"/>
<path d="M3.84998 14.9498C14.654 11.3423 26.346 11.3423 37.15 14.9498" stroke="white" stroke-width="3" stroke-linecap="round" stroke-linejoin="round"/>
</svg>
