<svg width="53" height="52" viewBox="0 0 53 52" fill="none" xmlns="http://www.w3.org/2000/svg">
<path d="M40.0474 52H12.0094C5.37517 52 0 46.6006 0 39.9664V22.0249C0 18.7321 2.03385 14.5917 4.6488 12.5579L17.6993 2.38865C21.6217 -0.662124 27.8928 -0.807399 31.9605 2.04968L46.9238 12.5337C49.8051 14.5433 52.0568 18.8531 52.0568 22.3639V39.9906C52.0568 46.6006 46.6817 52 40.0474 52ZM19.9269 5.24573L6.87634 15.415C5.15726 16.7709 3.63187 19.8459 3.63187 22.0249V39.9664C3.63187 44.591 7.38481 48.3681 12.0094 48.3681H40.0474C44.672 48.3681 48.425 44.6152 48.425 39.9906V22.3639C48.425 20.0396 46.7543 16.8193 44.8415 15.5118L29.8782 5.02781C27.118 3.09082 22.566 3.18767 19.9269 5.24573Z" fill="black"/>
<path d="M29.6618 42.3386H22.398C17.3861 42.3386 13.3184 38.2709 13.3184 33.259V25.9952C13.3184 20.9832 17.3861 16.9155 22.398 16.9155H29.6618C34.6738 16.9155 38.7415 20.9832 38.7415 25.9952V33.259C38.7415 38.2709 34.6738 42.3386 29.6618 42.3386ZM22.398 20.5474C19.3957 20.5474 16.9502 22.9929 16.9502 25.9952V33.259C16.9502 36.2613 19.3957 38.7068 22.398 38.7068H29.6618C32.6641 38.7068 35.1096 36.2613 35.1096 33.259V25.9952C35.1096 22.9929 32.6641 20.5474 29.6618 20.5474H22.398Z" fill="black"/>
<path d="M26.0288 42.3386C25.0361 42.3386 24.2129 41.5154 24.2129 40.5227V18.7315C24.2129 17.7388 25.0361 16.9155 26.0288 16.9155C27.0215 16.9155 27.8448 17.7388 27.8448 18.7315V40.5227C27.8448 41.5154 27.0215 42.3386 26.0288 42.3386Z" fill="black"/>
<path d="M36.9255 31.4432H15.1343C14.1416 31.4432 13.3184 30.6199 13.3184 29.6272C13.3184 28.6345 14.1416 27.8113 15.1343 27.8113H36.9255C37.9182 27.8113 38.7415 28.6345 38.7415 29.6272C38.7415 30.6199 37.9182 31.4432 36.9255 31.4432Z" fill="black"/>
</svg>
