<svg width="70" height="70" viewBox="0 0 70 70" fill="none" xmlns="http://www.w3.org/2000/svg">
<path d="M70 35C70 15.715 54.285 0 35 0C15.715 0 0 15.715 0 35C0 45.15 4.375 54.285 11.305 60.69C11.305 60.725 11.305 60.725 11.27 60.76C11.62 61.11 12.04 61.39 12.39 61.705C12.6 61.88 12.775 62.055 12.985 62.195C13.615 62.72 14.315 63.21 14.98 63.7C15.225 63.875 15.435 64.015 15.68 64.19C16.345 64.645 17.045 65.065 17.78 65.45C18.025 65.59 18.305 65.765 18.55 65.905C19.25 66.29 19.985 66.64 20.755 66.955C21.035 67.095 21.315 67.235 21.595 67.34C22.365 67.655 23.135 67.935 23.905 68.18C24.185 68.285 24.465 68.39 24.745 68.46C25.585 68.705 26.425 68.915 27.265 69.125C27.51 69.195 27.755 69.265 28.035 69.3C29.015 69.51 29.995 69.65 31.01 69.755C31.15 69.755 31.29 69.79 31.43 69.825C32.62 69.93 33.81 70 35 70C36.19 70 37.38 69.93 38.535 69.825C38.675 69.825 38.815 69.79 38.955 69.755C39.97 69.65 40.95 69.51 41.93 69.3C42.175 69.265 42.42 69.16 42.7 69.125C43.54 68.915 44.415 68.74 45.22 68.46C45.5 68.355 45.78 68.25 46.06 68.18C46.83 67.9 47.635 67.655 48.37 67.34C48.65 67.235 48.93 67.095 49.21 66.955C49.945 66.64 50.68 66.29 51.415 65.905C51.695 65.765 51.94 65.59 52.185 65.45C52.885 65.03 53.585 64.645 54.285 64.19C54.53 64.05 54.74 63.875 54.985 63.7C55.685 63.21 56.35 62.72 56.98 62.195C57.19 62.02 57.365 61.845 57.575 61.705C57.96 61.39 58.345 61.075 58.695 60.76C58.695 60.725 58.695 60.725 58.66 60.69C65.625 54.285 70 45.15 70 35ZM52.29 52.395C42.805 46.025 27.265 46.025 17.71 52.395C16.17 53.41 14.91 54.6 13.86 55.895C8.54 50.505 5.25 43.12 5.25 35C5.25 18.585 18.585 5.25 35 5.25C51.415 5.25 64.75 18.585 64.75 35C64.75 43.12 61.46 50.505 56.14 55.895C55.125 54.6 53.83 53.41 52.29 52.395Z" fill="black"/>
<path d="M35 17.2539C27.755 17.2539 21.875 23.1339 21.875 30.3789C21.875 37.4839 27.44 43.2589 34.825 43.4689H35.14H35.385H35.455C42.525 43.2239 48.09 37.4839 48.125 30.3789C48.125 23.1339 42.245 17.2539 35 17.2539Z" fill="black"/>
</svg>
