<?xml version="1.0" encoding="UTF-8" standalone="no"?>
<svg
   width="41"
   height="41"
   viewBox="0 0 41 41"
   fill="none"
   version="1.1"
   id="svg12"
   sodipodi:docname="icon2.svg"
   inkscape:version="1.2.1 (9c6d41e410, 2022-07-14)"
   xmlns:inkscape="http://www.inkscape.org/namespaces/inkscape"
   xmlns:sodipodi="http://sodipodi.sourceforge.net/DTD/sodipodi-0.dtd"
   xmlns="http://www.w3.org/2000/svg"
   xmlns:svg="http://www.w3.org/2000/svg">
  <defs
     id="defs16" />
  <sodipodi:namedview
     id="namedview14"
     pagecolor="#ffffff"
     bordercolor="#000000"
     borderopacity="0.25"
     inkscape:showpageshadow="2"
     inkscape:pageopacity="0.0"
     inkscape:pagecheckerboard="0"
     inkscape:deskcolor="#d1d1d1"
     showgrid="false"
     inkscape:zoom="28.870652"
     inkscape:cx="24.592447"
     inkscape:cy="26.670682"
     inkscape:window-width="1920"
     inkscape:window-height="1017"
     inkscape:window-x="-8"
     inkscape:window-y="-8"
     inkscape:window-maximized="1"
     inkscape:current-layer="svg12" />
  <path
     d="M 20.5,39.0047 C 30.7172,39.0047 39,30.7218 39,20.5046 39,10.2874 30.7172,2.00464 20.5,2.00464 10.2827,2.00464 2,10.2874 2,20.5046 2,30.7218 10.2827,39.0047 20.5,39.0047 Z"
     stroke="#0c283c"
     stroke-width="3"
     stroke-linecap="round"
     stroke-linejoin="round"
     id="path2"
     sodipodi:nodetypes="sssss" />
  <path
     d="m 13.1001,3.85461 v 0 c -3.6075,10.80399 -3.6075,22.49599 0,33.29999 v 0"
     stroke="#0c283c"
     stroke-width="3"
     stroke-linecap="round"
     stroke-linejoin="round"
     id="path4"
     sodipodi:nodetypes="cccc" />
  <path
     d="m 26.0503,3.85461 c 3.6075,10.80399 6.5113,22.305749 2.9038,33.109749"
     stroke="#0c283c"
     stroke-width="3"
     stroke-linecap="round"
     stroke-linejoin="round"
     id="path6"
     sodipodi:nodetypes="cc" />
  <path
     d="M3.84985 27.9048V26.0548C14.6539 29.6623 26.3459 29.6623 37.1499 26.0548V27.9048"
     stroke="#0C283C"
     stroke-width="3"
     stroke-linecap="round"
     stroke-linejoin="round"
     id="path8" />
  <path
     d="m 3.84985,14.9546 c 10.80405,-3.6075 22.49605,-3.6075 33.30005,0"
     stroke="#0c283c"
     stroke-width="3"
     stroke-linecap="round"
     stroke-linejoin="round"
     id="path10"
     sodipodi:nodetypes="cc" />
</svg>
