<svg width="48" height="48" viewBox="0 0 48 48" fill="none" xmlns="http://www.w3.org/2000/svg">
<path d="M42.9 22.9551C42.9 33.9801 33.975 42.9051 22.95 42.9051C11.925 42.9051 3 33.9801 3 22.9551C3 11.9301 11.925 3.00513 22.95 3.00513" stroke="#0C283C" stroke-width="5" stroke-linecap="round" stroke-linejoin="round"/>
<path d="M45 45.0049L40.8 40.8049" stroke="#0C283C" stroke-width="5" stroke-linecap="round" stroke-linejoin="round"/>
<path d="M29.2498 11.6782C28.5148 9.36815 29.3759 6.49115 31.8119 5.71415C33.0929 5.29415 34.6678 5.65115 35.5708 6.89015C36.4108 5.60915 38.0488 5.31515 39.3088 5.71415C41.7448 6.49115 42.6058 9.36815 41.8708 11.6782C40.7158 15.3532 36.6838 17.2642 35.5708 17.2642C34.4368 17.2642 30.4468 15.3952 29.2498 11.6782Z" stroke="#0C283C" stroke-width="5" stroke-linecap="round" stroke-linejoin="round"/>
</svg>
