<svg width="180" height="40" viewBox="0 0 180 40" fill="none" xmlns="http://www.w3.org/2000/svg">
<g clip-path="url(#clip0_1179_1239)">
<path d="M34.5586 25.0451C33.5869 19.775 29.8459 18.1795 24.5987 17.5026C20.3233 16.9224 14.2988 16.5839 11.238 16.1488C8.76013 15.8103 6.86534 15.5202 6.23374 12.7643C6.08799 11.9907 6.08798 11.4589 6.08798 10.6369C6.08798 10.0084 6.13655 9.57324 6.28231 8.99304C6.76816 6.96236 8.61438 6.04372 10.412 5.60857C12.6955 5.07672 15.0276 5.02837 17.311 5.02837C19.5945 5.02837 21.7808 5.17342 23.3355 5.51187C26.2992 6.18876 27.4167 7.25245 27.7082 9.66993C27.7567 9.96003 27.7567 10.3952 27.7567 10.8303C27.7567 11.2655 27.7567 11.7006 27.7567 12.0874H33.4897C33.4897 10.5886 33.4412 9.23479 33.2468 8.0744C32.6152 3.67458 29.7487 1.06371 24.2101 0.338465C22.5096 0.0967144 20.3233 0 18.0884 0C17.7483 0 17.4568 0 17.1167 0C14.6875 0 11.3351 0.0967 8.95447 0.580196C4.87336 1.35379 1.66677 3.28778 0.840823 7.44585C0.646487 8.55789 0.500742 9.96004 0.500742 11.3138C0.500742 12.3775 0.549323 13.3929 0.743663 14.2632C1.5696 18.4212 4.33893 20.3552 9.24598 20.9838C12.9384 21.4673 19.9346 21.9507 23.7242 22.4826C26.9794 22.9177 28.4855 24.1265 28.9714 26.2055C29.1171 26.7857 29.1657 27.6077 29.1657 28.3813C29.1657 29.3966 29.0685 30.3636 28.8256 31.0405C28.1454 32.9745 26.8336 34.0382 23.9185 34.5217C22.4124 34.7634 20.5176 34.9084 18.6228 34.9568C18.2827 34.9568 17.8941 34.9568 17.554 34.9568C15.7563 34.9568 14.0073 34.8601 12.5497 34.6667C8.07994 34.1349 6.28231 33.0712 6.08798 28.6713C6.08798 28.1878 6.03939 27.656 6.03939 27.0275H0.35498C0.35498 27.6077 0.35498 28.1878 0.35498 28.7197C0.549321 36.1172 3.65875 38.8731 11.3837 39.6951C13.3757 39.8885 15.5134 39.9852 17.6997 39.9852C18.137 39.9852 18.5742 39.9852 19.0115 39.9852C21.1978 39.9368 23.3841 39.7918 25.2789 39.5017C30.5747 38.7764 33.344 36.649 34.3643 32.8294C34.7043 31.6207 34.8501 30.0251 34.8501 28.4779C34.8501 27.2208 34.7529 26.0121 34.5586 25.0451Z" fill="#8AB6D5"/>
<path d="M68.3735 28.9615H63.1263C63.0777 29.6384 63.0291 30.2186 62.8834 30.8955C62.3975 33.2646 61.3287 34.3283 58.7051 34.8602C57.3933 35.1019 55.5957 35.1019 54.2353 35.1019C53.8466 35.1019 53.5066 35.1019 53.1179 35.1019C52.0004 35.1019 50.9801 35.0536 50.057 34.9569C46.4618 34.6184 45.2957 33.5064 44.7127 30.0736C44.4698 28.5747 44.4212 27.0275 44.4212 25.6737H68.1791C68.1791 24.5134 68.2277 23.2079 68.2277 21.9508C68.2277 20.1135 68.1791 18.3246 68.0334 16.9708C67.5475 13.0062 65.1183 9.96013 58.5594 9.33158C57.3447 9.23488 55.79 9.18652 54.2839 9.18652C52.5834 9.23487 50.9316 9.23487 49.2311 9.37992C43.8868 9.86341 40.1458 11.604 39.4656 19.0982C39.3198 20.7421 39.2227 22.7728 39.2227 24.8035C39.2227 26.9792 39.3684 29.1549 39.6113 30.8955C40.3887 36.2623 42.6722 38.5831 47.5792 39.3083C49.8627 39.6468 52.2434 39.6952 54.5754 39.6952C56.3245 39.6952 58.0735 39.6468 59.774 39.405C64.9725 38.6798 67.3532 36.6008 68.1791 31.2823C68.3249 30.5087 68.3735 29.6868 68.3735 28.9615ZM63.1263 21.4673H44.4698C44.5184 20.8388 44.5184 20.307 44.567 19.8235C44.8585 16.0522 46.1217 14.3599 49.6684 13.9731C51.0773 13.8281 52.875 13.7797 54.3325 13.7797C55.6929 13.7797 57.2476 13.8281 58.2678 13.9248C61.6202 14.2149 62.8348 16.1005 63.0777 17.9862C63.1263 18.518 63.1749 19.0015 63.1749 19.485C63.1749 20.1135 63.1263 20.7904 63.1263 21.4673Z" fill="#8AB6D5"/>
<path d="M101.362 39.1149V19.1949C101.362 15.1335 100.148 11.9908 96.4554 10.4919C94.6092 9.76668 91.8884 9.37988 89.362 9.37988C89.2163 9.37988 89.0219 9.37988 88.8762 9.37988C86.9814 9.37988 84.9894 9.47658 83.1918 9.96008C81.5885 10.3952 80.2281 11.2655 79.5479 12.8611V9.81504H74.2036V39.0666H79.6451V20.9355C79.6451 17.8411 80.6654 15.617 83.7262 14.65C85.1352 14.2149 86.7385 14.0698 88.196 14.0698C89.945 14.0698 91.8399 14.2632 93.2002 14.8434C95.7752 15.9071 95.921 18.5663 95.921 20.1619V39.0666L101.362 39.1149Z" fill="#8AB6D5"/>
<path d="M134.06 31.0889C134.06 30.0252 133.963 28.9615 133.769 28.0429C132.943 23.9815 129.882 22.8211 126.141 22.3376C123.031 21.9508 118.222 21.6607 115.598 21.3223C113.752 21.0805 112.683 20.4037 112.343 19.1466C112.246 18.7598 112.197 18.2763 112.197 17.7928C112.197 17.2609 112.246 16.7291 112.391 16.2456C112.829 14.6984 114.14 14.0698 116.23 13.7797C117.298 13.6347 118.61 13.538 120.116 13.538C121.72 13.5864 123.08 13.6347 124.198 13.8281C126.918 14.3116 127.647 15.5687 127.793 18.0345C127.793 18.1312 127.793 18.2279 127.793 18.373H132.991C132.943 15.8104 132.797 14.36 132.068 13.0062C131.048 11.1689 129.153 9.91178 125.266 9.42828C123.712 9.23488 121.963 9.13819 120.262 9.08984C118.61 9.08984 117.007 9.18654 115.501 9.33159C111.76 9.76674 108.31 11.2172 107.484 14.7468C107.29 15.5687 107.144 16.5357 107.096 17.5027C107.096 18.4697 107.144 19.4367 107.339 20.307C107.922 23.3046 110.011 25.0452 113.995 25.6737C116.764 26.1089 121.914 26.399 125.023 26.7858C125.752 26.8825 126.335 27.0276 126.821 27.221C127.987 27.7045 128.522 28.4781 128.764 29.5417C128.813 29.9285 128.862 30.4604 128.862 31.0406C128.862 31.6691 128.813 32.2977 128.667 32.6845C128.181 33.9415 127.307 34.7635 125.315 35.1019C124.635 35.247 121.865 35.4404 120.797 35.4404C120.456 35.4404 120.116 35.4404 119.679 35.4404C118.61 35.4404 117.347 35.4404 116.084 35.247C112.391 34.7151 112.003 32.5878 112.003 29.8802H106.61C106.658 36.1656 108.505 39.0182 115.404 39.7435C116.91 39.8885 118.707 39.8885 120.554 39.8885C122.789 39.8885 124.878 39.7919 126.627 39.5018C130.514 38.8732 132.797 37.3744 133.672 34.3767C133.963 33.4097 134.06 32.2493 134.06 31.0889Z" fill="#8AB6D5"/>
<path d="M167.486 28.9615H162.239C162.191 29.6384 162.142 30.2186 161.996 30.8955C161.51 33.2646 160.441 34.3283 157.818 34.8602C156.506 35.1019 154.708 35.1019 153.348 35.1019C152.959 35.1019 152.619 35.1019 152.231 35.1019C151.113 35.1019 150.093 35.0536 149.17 34.9569C145.575 34.6184 144.409 33.5064 143.826 30.0736C143.583 28.5747 143.534 27.0275 143.534 25.6737H167.292C167.292 24.5134 167.341 23.2079 167.341 21.9508C167.341 20.1135 167.292 18.3246 167.146 16.9708C166.66 13.0062 164.231 9.96013 157.672 9.33158C156.458 9.23488 154.903 9.18652 153.397 9.18652C151.696 9.23487 150.044 9.23487 148.344 9.37992C143 9.86341 139.259 11.604 138.578 19.0982C138.433 20.7421 138.335 22.7728 138.335 24.8035C138.335 26.9792 138.481 29.1549 138.724 30.8955C139.502 36.2623 141.785 38.5831 146.692 39.3083C148.976 39.6468 151.356 39.6952 153.688 39.6952C155.437 39.6952 157.186 39.6468 158.887 39.405C164.085 38.6798 166.466 36.6008 167.292 31.2823C167.438 30.5087 167.486 29.6868 167.486 28.9615ZM162.239 21.4673H143.583C143.631 20.8388 143.631 20.307 143.68 19.8235C143.971 16.0522 145.234 14.3599 148.781 13.9731C150.19 13.8281 151.988 13.7797 153.445 13.7797C154.806 13.7797 156.36 13.8281 157.381 13.9248C160.733 14.2149 161.948 16.1005 162.191 17.9862C162.239 18.518 162.288 19.0015 162.288 19.485C162.288 20.1135 162.239 20.7904 162.239 21.4673Z" fill="#8AB6D5"/>
<path d="M179.827 6.23696V0.676758H172.928V6.23696H179.827ZM179.147 10.25H173.657V39.0664H179.147V10.25Z" fill="#8AB6D5"/>
</g>
<defs>
<clipPath id="clip0_1179_1239">
<rect width="179.472" height="39.9852" fill="white" transform="translate(0.35498)"/>
</clipPath>
</defs>
</svg>
