<svg width="206" height="79" viewBox="0 0 206 79" fill="none" xmlns="http://www.w3.org/2000/svg">
<g clip-path="url(#clip0_1179_1207)">
<path d="M95.4805 35.5568C94.7412 31.0398 91.8951 29.6723 87.9031 29.0921C84.6503 28.5948 80.0669 28.3048 77.7382 27.9318C75.8531 27.6417 74.4116 27.3931 73.931 25.031C73.8201 24.368 73.8201 23.9121 73.8201 23.2076C73.8201 22.6689 73.8571 22.296 73.968 21.7987C74.3376 20.0582 75.7422 19.2708 77.1099 18.8979C78.8471 18.442 80.6213 18.4006 82.3586 18.4006C84.0959 18.4006 85.7592 18.5249 86.942 18.815C89.1968 19.3952 90.0469 20.3068 90.2687 22.3788C90.3057 22.6275 90.3057 23.0004 90.3057 23.3734C90.3057 23.7464 90.3057 24.1193 90.3057 24.4508H94.6673C94.6673 23.1662 94.6304 22.0059 94.4825 21.0113C94.002 17.2403 91.8212 15.0025 87.6074 14.3809C86.3137 14.1737 84.6503 14.0908 82.95 14.0908C82.6913 14.0908 82.4695 14.0908 82.2108 14.0908C80.3626 14.0908 77.8122 14.1737 76.001 14.5881C72.8961 15.2511 70.4565 16.9088 69.8281 20.4726C69.6803 21.4257 69.5694 22.6275 69.5694 23.7878C69.5694 24.6995 69.6064 25.5697 69.7542 26.3157C70.3826 29.8795 72.4895 31.5371 76.2227 32.0758C79.0319 32.4902 84.3546 32.9046 87.2377 33.3605C89.7143 33.7334 90.8601 34.7694 91.2297 36.5513C91.3406 37.0486 91.3776 37.7531 91.3776 38.4161C91.3776 39.2864 91.3037 40.1152 91.1189 40.6953C90.6014 42.3529 89.6034 43.2646 87.3856 43.679C86.2397 43.8862 84.7982 44.0105 83.3566 44.052C83.0979 44.052 82.8022 44.052 82.5434 44.052C81.1758 44.052 79.8451 43.9691 78.7362 43.8034C75.3356 43.3475 73.968 42.4358 73.8201 38.6648C73.8201 38.2504 73.7832 37.7945 73.7832 37.2558H69.4585C69.4585 37.7531 69.4585 38.2504 69.4585 38.7062C69.6063 45.0465 71.972 47.4086 77.8491 48.1131C79.3646 48.2789 80.991 48.3618 82.6543 48.3618C82.987 48.3618 83.3197 48.3618 83.6523 48.3618C85.3157 48.3203 86.979 48.196 88.4206 47.9474C92.4495 47.3258 94.5564 45.5024 95.3326 42.2286C95.5914 41.1926 95.7023 39.8251 95.7023 38.499C95.7023 37.4216 95.6284 36.3856 95.4805 35.5568Z" fill="#AAD2E5"/>
<path d="M121.207 38.9134H117.215C117.178 39.4935 117.141 39.9908 117.03 40.5709C116.66 42.6015 115.847 43.5132 113.851 43.969C112.853 44.1762 111.485 44.1762 110.45 44.1762C110.155 44.1762 109.896 44.1762 109.6 44.1762C108.75 44.1762 107.974 44.1348 107.272 44.0519C104.536 43.7618 103.649 42.8087 103.206 39.8665C103.021 38.5818 102.984 37.2557 102.984 36.0954H121.059C121.059 35.1008 121.096 33.982 121.096 32.9045C121.096 31.3298 121.059 29.7965 120.948 28.6362C120.578 25.2381 118.73 22.6274 113.74 22.0887C112.816 22.0058 111.633 21.9644 110.487 21.9644C109.194 22.0058 107.937 22.0058 106.643 22.1301C102.577 22.5445 99.7311 24.0364 99.2136 30.4596C99.1027 31.8685 99.0288 33.609 99.0288 35.3495C99.0288 37.2143 99.1397 39.0791 99.3245 40.5709C99.9159 45.1708 101.653 47.1599 105.386 47.7815C107.124 48.0716 108.935 48.113 110.709 48.113C112.04 48.113 113.37 48.0716 114.664 47.8644C118.619 47.2428 120.43 45.4609 121.059 40.9025C121.17 40.2394 121.207 39.535 121.207 38.9134ZM117.215 32.4901H103.021C103.058 31.9514 103.058 31.4956 103.095 31.0812C103.317 27.8489 104.278 26.3984 106.976 26.0669C108.048 25.9426 109.415 25.9012 110.524 25.9012C111.559 25.9012 112.742 25.9426 113.518 26.0255C116.069 26.2741 116.993 27.8903 117.178 29.5064C117.215 29.9623 117.252 30.3767 117.252 30.7911C117.252 31.3298 117.215 31.91 117.215 32.4901Z" fill="#AAD2E5"/>
<path d="M146.305 47.616V30.5427C146.305 27.0617 145.381 24.3681 142.572 23.0835C141.167 22.4619 139.097 22.1304 137.175 22.1304C137.064 22.1304 136.916 22.1304 136.805 22.1304C135.364 22.1304 133.848 22.2133 132.481 22.6277C131.261 23.0006 130.226 23.7465 129.709 25.1141V22.5033H125.643V47.5746H129.782V32.0346C129.782 29.3824 130.559 27.4761 132.887 26.6473C133.959 26.2744 135.179 26.1501 136.288 26.1501C137.619 26.1501 139.06 26.3158 140.095 26.8131C142.054 27.7248 142.165 30.004 142.165 31.3715V47.5746L146.305 47.616Z" fill="#AAD2E5"/>
<path d="M171.181 40.7366C171.181 39.8249 171.107 38.9132 170.959 38.1258C170.331 34.6449 168.002 33.6503 165.156 33.2359C162.79 32.9044 159.131 32.6558 157.135 32.3657C155.73 32.1585 154.917 31.5783 154.659 30.5009C154.585 30.1694 154.548 29.7549 154.548 29.3405C154.548 28.8847 154.585 28.4289 154.695 28.0145C155.028 26.6884 156.026 26.1497 157.616 25.901C158.429 25.7767 159.427 25.6938 160.573 25.6938C161.792 25.7353 162.827 25.7767 163.678 25.9425C165.747 26.3569 166.302 27.4343 166.413 29.5478C166.413 29.6306 166.413 29.7135 166.413 29.8378H170.368C170.331 27.6415 170.22 26.3983 169.666 25.238C168.889 23.6633 167.448 22.5858 164.491 22.1714C163.308 22.0057 161.977 21.9228 160.684 21.8813C159.427 21.8813 158.207 21.9642 157.061 22.0885C154.215 22.4615 151.591 23.7047 150.962 26.7298C150.814 27.4343 150.703 28.2631 150.667 29.0919C150.667 29.9207 150.703 30.7495 150.851 31.4954C151.295 34.0647 152.884 35.5566 155.915 36.0953C158.022 36.4682 161.94 36.7169 164.306 37.0484C164.86 37.1313 165.304 37.2556 165.674 37.4214C166.561 37.8358 166.967 38.4988 167.152 39.4105C167.189 39.742 167.226 40.1978 167.226 40.6951C167.226 41.2339 167.189 41.7726 167.078 42.1041C166.708 43.1815 166.043 43.886 164.528 44.1761C164.01 44.3004 161.903 44.4662 161.09 44.4662C160.831 44.4662 160.573 44.4662 160.24 44.4662C159.427 44.4662 158.466 44.4662 157.505 44.3004C154.695 43.8446 154.4 42.0212 154.4 39.7006H150.297C150.334 45.0878 151.738 47.5327 156.987 48.1543C158.133 48.2786 159.501 48.2787 160.905 48.2787C162.606 48.2787 164.195 48.1958 165.526 47.9471C168.483 47.4084 170.22 46.1238 170.885 43.5545C171.107 42.7257 171.181 41.7311 171.181 40.7366Z" fill="#AAD2E5"/>
<path d="M196.611 38.9134H192.619C192.582 39.4935 192.546 39.9908 192.435 40.5709C192.065 42.6015 191.252 43.5132 189.256 43.969C188.258 44.1762 186.89 44.1762 185.855 44.1762C185.559 44.1762 185.301 44.1762 185.005 44.1762C184.155 44.1762 183.379 44.1348 182.676 44.0519C179.941 43.7618 179.054 42.8087 178.61 39.8665C178.426 38.5818 178.389 37.2557 178.389 36.0954H196.464C196.464 35.1008 196.501 33.982 196.501 32.9045C196.501 31.3298 196.464 29.7965 196.353 28.6362C195.983 25.2381 194.135 22.6274 189.145 22.0887C188.221 22.0058 187.038 21.9644 185.892 21.9644C184.598 22.0058 183.342 22.0058 182.048 22.1301C177.982 22.5445 175.136 24.0364 174.618 30.4596C174.508 31.8685 174.434 33.609 174.434 35.3495C174.434 37.2143 174.545 39.0791 174.729 40.5709C175.321 45.1708 177.058 47.1599 180.791 47.7815C182.529 48.0716 184.34 48.113 186.114 48.113C187.445 48.113 188.775 48.0716 190.069 47.8644C194.024 47.2428 195.835 45.4609 196.464 40.9025C196.574 40.2394 196.611 39.535 196.611 38.9134ZM192.619 32.4901H178.426C178.463 31.9514 178.463 31.4956 178.5 31.0812C178.721 27.8489 179.682 26.3984 182.381 26.0669C183.453 25.9426 184.82 25.9012 185.929 25.9012C186.964 25.9012 188.147 25.9426 188.923 26.0255C191.474 26.2741 192.398 27.8903 192.582 29.5064C192.619 29.9623 192.656 30.3767 192.656 30.7911C192.656 31.3298 192.619 31.91 192.619 32.4901Z" fill="#AAD2E5"/>
<path d="M206 19.4365V14.6709H200.751V19.4365H206ZM205.483 22.876H201.306V47.5743H205.483V22.876Z" fill="#AAD2E5"/>
<path d="M47.5262 15.3021C47.5262 17.6442 46.7254 19.8904 45.2999 21.5466C43.8744 23.2027 41.941 24.1331 39.925 24.1331C38.9268 24.1331 37.9384 23.9047 37.0161 23.4609C36.0939 23.0171 35.2559 22.3666 34.5501 21.5466C33.8442 20.7265 33.2844 19.753 32.9024 18.6816C32.5204 17.6102 32.3237 16.4618 32.3237 15.3021C32.3237 14.1424 32.5204 12.9941 32.9024 11.9227C33.2844 10.8513 33.8442 9.87773 34.5501 9.0577C35.2559 8.23767 36.0939 7.58719 37.0161 7.14339C37.9384 6.69959 38.9268 6.47119 39.925 6.47119C41.941 6.47119 43.8744 7.40158 45.2999 9.0577C46.7254 10.7138 47.5262 12.96 47.5262 15.3021Z" fill="#8AB6D5"/>
<path d="M40.082 0L23.5693 11.9378C38.3506 13.5918 41.265 13.2461 56.5947 11.8241L40.082 0Z" fill="#BBE1F3"/>
<path d="M39.8377 24.9746C38.1325 24.9788 36.475 25.448 35.1194 26.3105V26.3172C34.6639 26.5875 34.0417 26.9966 33.898 27.176C33.8966 27.1777 33.8948 27.1793 33.8935 27.181L33.5262 27.6413C33.3297 27.8827 33.1398 28.1281 32.9573 28.3545L25.7334 37.8812L31.0416 36.7781L28.66 50.4798L26.5337 59.1679C35.6115 60.1034 44.8026 61.5296 53.0223 58.7544L47.4573 30.0201H47.4499C46.6287 27.0664 43.474 24.9747 39.8377 24.9746Z" fill="#8AB6D5"/>
<path d="M13.8821 26.437C11.6368 30.0062 10.1486 33.7925 9.50651 37.5697C8.86443 41.3469 9.08163 45.0374 10.1451 48.4205C11.1869 51.7239 13.0154 54.6681 15.5263 57.0849C18.0372 59.5018 21.1812 61.3439 24.7788 62.5063C28.3765 63.6686 32.3574 64.1283 36.4941 63.8591C40.6309 63.59 44.8426 62.5973 48.8886 60.9376C53.1861 59.1681 57.2028 56.6842 60.6804 53.6455C59.4774 54.3342 58.2395 54.9431 56.9737 55.469C52.9061 57.1374 48.6063 57.927 44.3198 57.7925C40.0333 57.658 35.844 56.6021 31.9911 54.6852C28.1382 52.7682 24.6972 50.0276 21.8646 46.62C19.0319 43.2124 16.863 39.2044 15.4818 34.8249C14.6368 32.1224 14.0996 29.3058 13.8821 26.437Z" fill="#BBE1F3"/>
<path d="M0 50.0596C2.02749 56.9442 6.16468 63.3627 11.8397 68.4278C17.5146 73.4929 24.4471 76.9544 31.6788 78.3338C40.9349 80.0983 50.0089 78.3268 56.9046 73.409C63.8002 68.4912 67.9527 60.83 68.4485 52.1107C68.5198 50.7733 68.5044 49.4209 68.4026 48.061C65.4802 55.4356 59.3313 61.3433 51.1382 64.6479C42.9451 67.9525 33.2863 68.4208 24.0193 65.9626C14.1889 63.3433 5.56503 57.6334 0 50.0596Z" fill="#BBE1F3"/>
</g>
<defs>
<clipPath id="clip0_1179_1207">
<rect width="206" height="79" fill="white"/>
</clipPath>
</defs>
</svg>
