<svg width="204" height="68" viewBox="0 0 204 68" fill="none" xmlns="http://www.w3.org/2000/svg">
<path d="M94.552 30.6027C93.8221 26.7145 91.0028 25.5382 87.0479 25.0395C83.8268 24.6126 79.2883 24.3628 76.9818 24.0402C75.1164 23.7903 73.689 23.5749 73.2116 21.5429C73.1016 20.9743 73.1015 20.5818 73.1015 19.975C73.1015 19.5107 73.1409 19.1911 73.2469 18.7613C73.6144 17.2623 75.0064 16.5866 76.358 16.264C78.0811 15.8715 79.8365 15.8371 81.5596 15.8371C83.2786 15.8371 84.927 15.9452 86.098 16.1941C88.3298 16.6937 89.1737 17.4777 89.3907 19.2609C89.4301 19.4754 89.4301 19.795 89.4301 20.1176C89.4301 20.4363 89.4301 20.7589 89.4301 21.0431H93.7475C93.7475 19.9366 93.7121 18.9412 93.5658 18.0845C93.0893 14.8387 90.9281 12.9129 86.7561 12.3758C85.4752 12.1988 83.8268 12.126 82.143 12.126C81.8866 12.126 81.6696 12.126 81.4132 12.126C79.5801 12.126 77.0565 12.1988 75.2617 12.5558C72.187 13.1243 69.7694 14.5535 69.1506 17.6203C69.0043 18.4426 68.8942 19.4754 68.8942 20.4747C68.8942 21.2586 68.9296 22.0081 69.0759 22.6494C69.6988 25.7152 71.7843 27.1444 75.4828 27.6057C78.2628 27.9627 83.535 28.3207 86.3897 28.7122C88.8426 29.0348 89.9782 29.9259 90.3447 31.4593C90.4506 31.8862 90.49 32.4931 90.49 33.0655C90.49 33.814 90.4153 34.5252 90.2336 35.0248C89.7219 36.454 88.7316 37.2379 86.5351 37.5949C85.3995 37.772 83.9721 37.8792 82.5448 37.9136C82.2884 37.9136 81.9967 37.9136 81.7403 37.9136C80.3886 37.9136 79.0673 37.8448 77.9711 37.6992C74.6036 37.3067 73.2469 36.5229 73.1015 33.277C73.1015 32.9229 73.0662 32.5275 73.0662 32.0662H68.7832C68.7832 32.4931 68.7832 32.9229 68.7832 33.3154C68.9296 38.7713 71.2715 40.8034 77.0918 41.4103C78.5939 41.5529 80.2029 41.6257 81.8513 41.6257C82.1784 41.6257 82.5095 41.6257 82.8406 41.6257C84.4849 41.5873 86.1333 41.4791 87.5606 41.2686C91.5509 40.7346 93.6374 39.1628 94.4056 36.3468C94.662 35.4546 94.773 34.2753 94.773 33.1344C94.773 32.2088 94.6973 31.3167 94.552 30.6027Z" fill="#8AB6D5"/>
<path d="M120.028 33.4908H116.077C116.037 33.9905 116.002 34.4174 115.891 34.9171C115.525 36.6649 114.72 37.4488 112.745 37.8442C111.755 38.0213 110.403 38.0213 109.377 38.0213C109.085 38.0213 108.829 38.0213 108.533 38.0213C107.693 38.0213 106.925 37.9868 106.227 37.9131C103.522 37.6642 102.642 36.8459 102.201 34.3131C102.019 33.2066 101.984 32.0656 101.984 31.0673H119.882C119.882 30.2096 119.918 29.2457 119.918 28.3202C119.918 26.9638 119.882 25.6458 119.771 24.6464C119.405 21.7232 117.575 19.4748 112.635 19.0105C111.72 18.9407 110.548 18.9023 109.412 18.9023C108.132 18.9407 106.889 18.9407 105.608 19.045C101.582 19.402 98.763 20.6856 98.2502 26.2143C98.1402 27.4281 98.0645 28.927 98.0645 30.425C98.0645 32.0273 98.1755 33.6335 98.3602 34.9171C98.9437 38.878 100.664 40.5874 104.362 41.1255C106.081 41.3753 107.875 41.4097 109.634 41.4097C110.951 41.4097 112.268 41.3753 113.549 41.1943C117.465 40.6602 119.258 39.1278 119.882 35.2053C119.992 34.6328 120.028 34.0249 120.028 33.4908ZM116.077 27.9621H102.019C102.055 27.4979 102.055 27.1055 102.091 26.7524C102.311 23.9668 103.266 22.7216 105.935 22.4334C106.996 22.3262 108.353 22.2918 109.449 22.2918C110.473 22.2918 111.644 22.3262 112.414 22.399C114.941 22.6144 115.856 24.0052 116.037 25.396C116.077 25.7874 116.112 26.1455 116.112 26.5025C116.112 26.9638 116.077 27.4625 116.077 27.9621Z" fill="#8AB6D5"/>
<path d="M144.88 40.9803V26.2875C144.88 23.2905 143.966 20.9742 141.186 19.8677C139.794 19.3336 137.743 19.0454 135.843 19.0454C135.733 19.0454 135.586 19.0454 135.476 19.0454C134.049 19.0454 132.546 19.1181 131.194 19.4752C129.983 19.7949 128.958 20.4362 128.446 21.6155V19.368H124.42V40.9449H128.52V27.5711C128.52 25.2892 129.289 23.6486 131.596 22.9335C132.657 22.6148 133.863 22.5066 134.963 22.5066C136.281 22.5066 137.708 22.6492 138.733 23.0761C140.673 23.863 140.784 25.8223 140.784 27.0026V40.9449L144.88 40.9803Z" fill="#8AB6D5"/>
<path d="M169.517 35.0592C169.517 34.2753 169.442 33.4914 169.297 32.8157C168.677 29.8187 166.371 28.962 163.551 28.6049C161.21 28.3207 157.586 28.1053 155.606 27.8554C154.218 27.6784 153.41 27.1788 153.154 26.2532C153.083 25.965 153.047 25.6079 153.047 25.2538C153.047 24.8624 153.083 24.467 153.194 24.1129C153.521 22.9719 154.51 22.5067 156.084 22.2923C156.888 22.1841 157.877 22.1152 159.013 22.1152C160.22 22.1496 161.245 22.1841 162.089 22.3267C164.135 22.6838 164.687 23.6132 164.794 25.4309C164.794 25.5036 164.794 25.5735 164.794 25.6807H168.714C168.677 23.7903 168.567 22.7221 168.015 21.7237C167.246 20.3674 165.819 19.4369 162.893 19.0838C161.722 18.9412 160.405 18.8684 159.124 18.834C157.877 18.834 156.671 18.9028 155.536 19.011C152.716 19.3336 150.118 20.4018 149.495 23.0064C149.349 23.6132 149.239 24.3244 149.202 25.0394C149.202 25.7535 149.239 26.4646 149.384 27.1059C149.826 29.319 151.399 30.6026 154.4 31.0678C156.485 31.3865 160.366 31.6009 162.708 31.8862C163.26 31.959 163.698 32.0662 164.064 32.2088C164.943 32.5658 165.346 33.1343 165.527 33.9182C165.562 34.2064 165.603 34.5979 165.603 35.0248C165.603 35.49 165.562 35.9543 165.456 36.2385C165.09 37.1651 164.431 37.7719 162.929 38.0218C162.416 38.129 160.33 38.2716 159.526 38.2716C159.269 38.2716 159.013 38.2716 158.682 38.2716C157.877 38.2716 156.928 38.2716 155.973 38.129C153.194 37.7375 152.898 36.1658 152.898 34.1681H148.836C148.871 38.8057 150.263 40.9105 155.461 41.4446C156.596 41.5528 157.952 41.5529 159.34 41.5529C161.024 41.5529 162.602 41.4791 163.919 41.2686C166.844 40.8034 168.567 39.6968 169.225 37.4877C169.442 36.7726 169.517 35.9159 169.517 35.0592Z" fill="#8AB6D5"/>
<path d="M194.701 33.4908H190.747C190.711 33.9905 190.675 34.4174 190.565 34.9171C190.198 36.6649 189.394 37.4488 187.414 37.8442C186.428 38.0213 185.073 38.0213 184.047 38.0213C183.755 38.0213 183.499 38.0213 183.207 38.0213C182.363 38.0213 181.594 37.9868 180.901 37.9131C178.191 37.6642 177.312 36.8459 176.875 34.3131C176.693 33.2066 176.654 32.0656 176.654 31.0673H194.555C194.555 30.2096 194.59 29.2457 194.59 28.3202C194.59 26.9638 194.555 25.6458 194.445 24.6464C194.078 21.7232 192.249 19.4748 187.307 19.0105C186.393 18.9407 185.218 18.9023 184.086 18.9023C182.805 18.9407 181.559 18.9407 180.278 19.045C176.251 19.402 173.432 20.6856 172.92 26.2143C172.809 27.4281 172.738 28.927 172.738 30.425C172.738 32.0273 172.848 33.6335 173.03 34.9171C173.617 38.878 175.337 40.5874 179.035 41.1255C180.754 41.3753 182.549 41.4097 184.303 41.4097C185.624 41.4097 186.941 41.3753 188.223 41.1943C192.139 40.6602 193.932 39.1278 194.555 35.2053C194.666 34.6328 194.701 34.0249 194.701 33.4908ZM190.747 27.9621H176.693C176.729 27.4979 176.729 27.1055 176.764 26.7524C176.985 23.9668 177.935 22.7216 180.609 22.4334C181.67 22.3262 183.021 22.2918 184.122 22.2918C185.147 22.2918 186.318 22.3262 187.087 22.399C189.611 22.6144 190.529 24.0052 190.711 25.396C190.747 25.7874 190.786 26.1455 190.786 26.5025C190.786 26.9638 190.747 27.4625 190.747 27.9621Z" fill="#8AB6D5"/>
<path d="M204 16.728V12.6255H198.803V16.728H204ZM203.487 19.6867H199.351V40.9449H203.487V19.6867Z" fill="#8AB6D5"/>
<path d="M47.0644 13.17C47.0644 17.366 43.6929 20.7701 39.5371 20.7701C35.3772 20.7701 32.0098 17.366 32.0098 13.17C32.0098 8.97107 35.3772 5.5708 39.5371 5.5708C43.6929 5.5708 47.0644 8.97107 47.0644 13.17Z" fill="#8AB6D5"/>
<path d="M39.6916 0L23.3398 10.2736C37.9766 11.6988 40.8626 11.3988 56.0434 10.1771L39.6916 0Z" fill="#BBE1F3"/>
<path d="M39.451 21.4966C37.7592 21.5005 36.1189 21.9038 34.7783 22.6454V22.6494C34.3251 22.8835 33.7093 23.2376 33.568 23.391C33.568 23.391 33.564 23.391 33.564 23.395L33.2006 23.7903C33.0038 23.9979 32.819 24.2093 32.6373 24.4051L25.4805 32.6042L30.7406 31.6551L28.3785 43.4463L26.2729 50.9235C35.2629 51.7301 44.3679 52.9556 52.506 50.5704L46.9945 25.8381H46.9864C46.1738 23.2946 43.0506 21.4966 39.451 21.4966Z" fill="#8AB6D5"/>
<path d="M13.7453 22.7524C9.25432 28.9618 7.91784 35.7889 10.0467 41.6757C12.1282 47.4159 17.3419 51.7761 24.5371 53.7973C31.7333 55.8186 40.3216 55.3337 48.4132 52.4489C52.6679 50.9233 56.6461 48.787 60.0883 46.1706C58.8982 46.7628 57.6717 47.2889 56.417 47.7424C48.283 50.643 39.3828 50.3971 31.6788 47.0657C23.9739 43.7343 18.0909 37.5839 15.3301 29.9719C14.4943 27.6477 13.9623 25.2232 13.7453 22.7524Z" fill="#BBE1F3"/>
<path d="M0 43.085C4.11242 55.2304 16.6909 64.9856 31.3711 67.4209C50.4554 70.5831 66.7608 60.4787 67.7813 44.8486C67.853 43.6998 67.8368 42.5362 67.7379 41.3638C61.7449 54.5084 42.7898 61.1545 23.7842 56.7706C14.0493 54.5192 5.50847 49.6052 0 43.085Z" fill="#BBE1F3"/>
</svg>
