<svg width="207" height="80" viewBox="0 0 207 80" fill="none" xmlns="http://www.w3.org/2000/svg">
<path d="M3.03488 4.43257C3.04335 4.43257 3.05022 4.42491 3.05022 4.41547C3.05022 4.40603 3.04335 4.39838 3.03488 4.39838C3.0264 4.39838 3.01953 4.40603 3.01953 4.41547C3.01953 4.42491 3.0264 4.43257 3.03488 4.43257Z" fill="#000055" stroke="black" stroke-width="0.0883043"/>
<path d="M8.49825 11.4909C8.50673 11.4909 8.5136 11.4833 8.5136 11.4738C8.5136 11.4644 8.50673 11.4567 8.49825 11.4567C8.48978 11.4567 8.48291 11.4644 8.48291 11.4738C8.48291 11.4833 8.48978 11.4909 8.49825 11.4909Z" fill="#000055" stroke="black" stroke-width="0.0883043"/>
<path d="M1.01534 1.03419C1.02382 1.03419 1.03069 1.02654 1.03069 1.0171C1.03069 1.00766 1.02382 1 1.01534 1C1.00687 1 1 1.00766 1 1.0171C1 1.02654 1.00687 1.03419 1.01534 1.03419Z" fill="#000055" stroke="black" stroke-width="0.0883043"/>
<path d="M98.8595 41.4073C98.1362 37.5042 95.3513 36.3225 91.4452 35.8212C88.2625 35.3915 83.7777 35.1408 81.4992 34.8186C79.6547 34.5679 78.2441 34.3531 77.774 32.312C77.6655 31.7391 77.6655 31.3452 77.6655 30.7365C77.6655 30.271 77.7016 29.9487 77.8101 29.519C78.1718 28.015 79.5462 27.3347 80.8844 27.0124C82.5842 26.6185 84.3203 26.5827 86.0201 26.5827C87.72 26.5827 89.3475 26.6901 90.5049 26.9408C92.7111 27.4421 93.5429 28.2299 93.7599 30.0203C93.7961 30.2351 93.7961 30.5574 93.7961 30.8797C93.7961 31.202 93.7961 31.5242 93.7961 31.8107H98.0639C98.0639 30.7006 98.0277 29.698 97.883 28.8386C97.4129 25.5801 95.279 23.6465 91.1559 23.1093C89.89 22.9303 88.2625 22.8587 86.5988 22.8587C86.3456 22.8587 86.1286 22.8587 85.8755 22.8587C84.0671 22.8587 81.5715 22.9303 79.7993 23.2884C76.7613 23.8613 74.3742 25.2936 73.7594 28.3731C73.6147 29.1967 73.5062 30.2351 73.5062 31.2378C73.5062 32.0255 73.5424 32.7775 73.687 33.4221C74.3019 36.5016 76.3634 37.9339 80.0163 38.3994C82.7651 38.7575 87.9732 39.1155 90.7942 39.5094C93.2174 39.8317 94.3386 40.7269 94.7003 42.2666C94.8088 42.6963 94.845 43.3051 94.845 43.878C94.845 44.63 94.7726 45.3461 94.5918 45.8475C94.0855 47.2798 93.1089 48.0676 90.9389 48.4256C89.8177 48.6047 88.4072 48.7121 86.9966 48.7479C86.7435 48.7479 86.4541 48.7479 86.201 48.7479C84.8628 48.7479 83.5607 48.6763 82.4757 48.5331C79.1483 48.1392 77.8101 47.3514 77.6655 44.0929C77.6655 43.7348 77.6293 43.3409 77.6293 42.8754H73.3977C73.3977 43.3051 73.3977 43.7348 73.3977 44.1287C73.5424 49.6073 75.8571 51.6484 81.6077 52.2571C83.0906 52.4003 84.6819 52.4719 86.3095 52.4719C86.635 52.4719 86.9605 52.4719 87.286 52.4719C88.9135 52.4361 90.5411 52.3287 91.9516 52.1139C95.8938 51.5767 97.9554 50.0012 98.7149 47.1724C98.968 46.2772 99.0766 45.0955 99.0766 43.9496C99.0766 43.0186 99.0042 42.1234 98.8595 41.4073Z" fill="#364E65"/>
<path d="M124.032 44.3078H120.126C120.09 44.8091 120.054 45.2388 119.945 45.7401C119.583 47.4947 118.788 48.2825 116.835 48.6764C115.858 48.8554 114.52 48.8554 113.507 48.8554C113.218 48.8554 112.965 48.8554 112.675 48.8554C111.844 48.8554 111.084 48.8196 110.397 48.748C107.72 48.4973 106.852 47.6738 106.418 45.1314C106.238 44.0213 106.201 42.8755 106.201 41.8728H123.887C123.887 41.0134 123.923 40.0466 123.923 39.1156C123.923 37.7549 123.887 36.43 123.779 35.4274C123.417 32.4911 121.609 30.2352 116.726 29.7697C115.822 29.6981 114.665 29.6623 113.543 29.6623C112.278 29.6981 111.048 29.6981 109.782 29.8055C105.804 30.1636 103.019 31.4527 102.512 37.0029C102.404 38.2204 102.332 39.7244 102.332 41.2283C102.332 42.8397 102.44 44.451 102.621 45.7401C103.2 49.7148 104.899 51.4336 108.552 51.9707C110.252 52.2214 112.024 52.2572 113.76 52.2572C115.062 52.2572 116.364 52.2214 117.63 52.0423C121.5 51.5052 123.272 49.9655 123.887 46.0266C123.996 45.4537 124.032 44.8449 124.032 44.3078ZM120.126 38.7575H106.238C106.274 38.292 106.274 37.8982 106.31 37.5401C106.527 34.747 107.467 33.4938 110.108 33.2073C111.156 33.0999 112.495 33.064 113.58 33.064C114.592 33.064 115.75 33.0999 116.509 33.1715C119.005 33.3863 119.909 34.7828 120.09 36.1794C120.126 36.5732 120.162 36.9313 120.162 37.2894C120.162 37.7549 120.126 38.2562 120.126 38.7575Z" fill="#364E65"/>
<path d="M148.59 51.828V37.075C148.59 34.0672 147.686 31.7396 144.937 30.6296C143.563 30.0925 141.537 29.806 139.657 29.806C139.548 29.806 139.403 29.806 139.295 29.806C137.884 29.806 136.401 29.8776 135.063 30.2357C133.87 30.558 132.857 31.2025 132.351 32.3842V30.1283H128.372V51.7922H132.423V38.3641C132.423 36.0724 133.183 34.4252 135.461 33.7091C136.51 33.3868 137.703 33.2794 138.789 33.2794C140.091 33.2794 141.501 33.4226 142.514 33.8523C144.431 34.6401 144.539 36.6095 144.539 37.7912V51.7922L148.59 51.828Z" fill="#364E65"/>
<path d="M172.931 45.8834C172.931 45.0956 172.858 44.3078 172.714 43.6274C172.099 40.6196 169.82 39.7602 167.035 39.4021C164.721 39.1156 161.14 38.9008 159.187 38.6501C157.813 38.4711 157.017 37.9698 156.764 37.0388C156.692 36.7523 156.655 36.3942 156.655 36.0361C156.655 35.6422 156.692 35.2484 156.8 34.8903C157.126 33.7444 158.102 33.2789 159.657 33.0641C160.453 32.9566 161.429 32.885 162.551 32.885C163.744 32.9208 164.757 32.9566 165.589 33.0999C167.614 33.458 168.157 34.389 168.265 36.2152C168.265 36.2868 168.265 36.3584 168.265 36.4658H172.135C172.099 34.568 171.99 33.4938 171.448 32.4911C170.688 31.1304 169.278 30.1994 166.384 29.8413C165.227 29.6981 163.925 29.6265 162.659 29.5907C161.429 29.5907 160.236 29.6623 159.115 29.7697C156.33 30.092 153.762 31.1663 153.147 33.7802C153.002 34.389 152.894 35.1051 152.858 35.8213C152.858 36.5375 152.894 37.2536 153.039 37.8982C153.473 40.1183 155.028 41.4073 157.994 41.8728C160.055 42.1951 163.889 42.41 166.204 42.6964C166.746 42.768 167.18 42.8755 167.542 43.0187C168.41 43.3768 168.808 43.9497 168.988 44.7375C169.025 45.024 169.061 45.4179 169.061 45.8476C169.061 46.3131 169.025 46.7786 168.916 47.065C168.554 47.996 167.903 48.6048 166.421 48.8554C165.914 48.9629 163.853 49.1061 163.057 49.1061C162.804 49.1061 162.551 49.1061 162.225 49.1061C161.429 49.1061 160.489 49.1061 159.549 48.9628C156.8 48.569 156.511 46.9934 156.511 44.9882H152.496C152.532 49.6432 153.907 51.7559 159.042 52.293C160.164 52.4004 161.502 52.4004 162.876 52.4004C164.54 52.4004 166.095 52.3288 167.397 52.114C170.29 51.6485 171.99 50.5384 172.641 48.3183C172.858 47.6021 172.931 46.7428 172.931 45.8834Z" fill="#364E65"/>
<path d="M197.813 44.3078H193.907C193.871 44.8091 193.835 45.2388 193.726 45.7401C193.365 47.4947 192.569 48.2825 190.616 48.6764C189.639 48.8554 188.301 48.8554 187.289 48.8554C186.999 48.8554 186.746 48.8554 186.457 48.8554C185.625 48.8554 184.865 48.8196 184.178 48.748C181.502 48.4973 180.634 47.6738 180.2 45.1314C180.019 44.0213 179.983 42.8755 179.983 41.8728H197.669C197.669 41.0134 197.705 40.0466 197.705 39.1156C197.705 37.7549 197.669 36.43 197.56 35.4274C197.198 32.4911 195.39 30.2352 190.507 29.7697C189.603 29.6981 188.446 29.6623 187.325 29.6623C186.059 29.6981 184.829 29.6981 183.563 29.8055C179.585 30.1636 176.8 31.4527 176.294 37.0029C176.185 38.2204 176.113 39.7244 176.113 41.2283C176.113 42.8397 176.221 44.451 176.402 45.7401C176.981 49.7148 178.681 51.4336 182.334 51.9707C184.033 52.2214 185.806 52.2572 187.542 52.2572C188.844 52.2572 190.146 52.2214 191.412 52.0423C195.282 51.5052 197.054 49.9655 197.669 46.0266C197.777 45.4537 197.813 44.8449 197.813 44.3078ZM193.907 38.7575H180.019C180.055 38.292 180.055 37.8982 180.091 37.5401C180.308 34.747 181.249 33.4938 183.889 33.2073C184.938 33.0999 186.276 33.064 187.361 33.064C188.374 33.064 189.531 33.0999 190.29 33.1715C192.786 33.3863 193.69 34.7828 193.871 36.1794C193.907 36.5732 193.943 36.9313 193.943 37.2894C193.943 37.7549 193.907 38.2562 193.907 38.7575Z" fill="#364E65"/>
<path d="M207 27.4783V23.3604H201.864V27.4783H207ZM206.494 30.4503H202.407V51.792H206.494V30.4503Z" fill="#364E65"/>
<path d="M45.2094 32.5903C49.3171 32.5903 52.647 29.1739 52.647 24.9595C52.647 20.7452 49.3171 17.3287 45.2094 17.3287C41.1017 17.3287 37.7717 20.7452 37.7717 24.9595C37.7717 29.1739 41.1017 32.5903 45.2094 32.5903Z" fill="#10273E"/>
<path d="M45.3631 11.7367L29.2059 22.0521C43.669 23.4813 46.5207 23.1826 61.5204 21.9538L45.3631 11.7367Z" fill="#364E65"/>
<path d="M45.1239 33.3173C43.4555 33.3209 41.8336 33.7264 40.5071 34.4716V34.4774C40.0615 34.7109 39.4527 35.0644 39.312 35.2194C39.3107 35.221 39.309 35.2223 39.3077 35.2238L38.9483 35.6216C38.756 35.8301 38.5702 36.0421 38.3916 36.2378L31.3232 44.4698L36.5171 43.5165L34.1868 55.3561L32.1063 62.8634C40.9887 63.6718 49.982 64.9041 58.0247 62.5061L52.5795 37.677H52.5722C51.7687 35.1248 48.682 33.3173 45.1239 33.3173Z" fill="#10273E"/>
<path d="M19.7274 34.5803C17.5304 37.6643 16.0743 40.9361 15.446 44.2C14.8178 47.4638 15.0303 50.6527 16.0709 53.576C17.0903 56.4305 18.8794 58.9745 21.3362 61.0629C23.793 63.1513 26.8694 64.7431 30.3896 65.7474C33.9098 66.7518 37.805 67.149 41.8527 66.9164C45.9004 66.6839 50.0214 65.8261 53.9804 64.392C58.1853 62.863 62.1156 60.7166 65.5183 58.0909C64.3412 58.686 63.13 59.2122 61.8914 59.6666C57.9114 61.1083 53.7041 61.7906 49.5099 61.6743C45.3156 61.5581 41.2165 60.6457 37.4466 58.9893C33.6766 57.3328 30.3097 54.9647 27.538 52.0202C24.7663 49.0757 22.6442 45.6125 21.2927 41.8282C20.4658 39.493 19.9402 37.0592 19.7274 34.5803Z" fill="#364E65"/>
<path d="M6.14404 54.9923C8.12789 60.9413 12.176 66.4875 17.7288 70.8642C23.2816 75.2409 30.0649 78.2319 37.1409 79.4239C46.1978 80.9485 55.0764 79.4178 61.8236 75.1684C68.5709 70.919 72.6339 64.2989 73.1191 56.7647C73.1888 55.609 73.1738 54.4404 73.0741 53.2654C70.2147 59.6377 64.1981 64.7425 56.1814 67.598C48.1646 70.4535 38.7138 70.8581 29.6463 68.734C20.0275 66.4706 11.5893 61.5368 6.14404 54.9923Z" fill="#364E65"/>
</svg>
