<svg width="179" height="40" viewBox="0 0 179 40" fill="none" xmlns="http://www.w3.org/2000/svg">
<g clip-path="url(#clip0_608_4042)">
<path d="M34.0382 25.0549C33.0712 19.7848 29.3482 18.1893 24.1265 17.5124C19.8717 16.9322 13.8764 16.5937 10.8303 16.1586C8.36449 15.8201 6.47886 15.53 5.85032 12.7741C5.70527 12.0005 5.70526 11.4686 5.70526 10.6467C5.70526 10.0182 5.7536 9.58301 5.89865 9.00282C6.38215 6.97213 8.21944 6.05349 10.0084 5.61834C12.2808 5.08649 14.6016 5.03814 16.874 5.03814C19.1465 5.03814 21.3222 5.18319 22.8694 5.52163C25.8187 6.19853 26.9308 7.26222 27.2209 9.6797C27.2692 9.9698 27.2692 10.405 27.2692 10.8401C27.2692 11.2753 27.2692 11.7104 27.2692 12.0972H32.9745C32.9745 10.5983 32.9261 9.24456 32.7327 8.08417C32.1042 3.68435 29.2515 1.07347 23.7397 0.348231C22.0474 0.10648 19.8717 0.00976562 17.6476 0.00976562C17.3092 0.00976562 17.0191 0.00976562 16.6806 0.00976562C14.2631 0.00976562 10.927 0.106466 8.55789 0.589962C4.49652 1.36356 1.30544 3.29755 0.483492 7.45562C0.290097 8.56766 0.145056 9.96981 0.145056 11.3236C0.145056 12.3873 0.193402 13.4026 0.386803 14.2729C1.20875 18.431 3.96467 20.365 8.84799 20.9935C12.5226 21.477 19.4849 21.9605 23.2562 22.4924C26.4956 22.9275 27.9944 24.1362 28.4779 26.2153C28.623 26.7955 28.6713 27.6174 28.6713 28.391C28.6713 29.4064 28.5746 30.3734 28.3329 31.0503C27.656 32.9842 26.3506 34.0479 23.4496 34.5314C21.9507 34.7732 20.0651 34.9182 18.1795 34.9666C17.841 34.9666 17.4542 34.9666 17.1158 34.9666C15.3268 34.9666 13.5862 34.8699 12.1358 34.6765C7.68759 34.1447 5.89866 33.0809 5.70526 28.6811C5.70526 28.1976 5.65691 27.6658 5.65691 27.0372H0C0 27.6174 0 28.1976 0 28.7295C0.193401 36.127 3.28779 38.8829 10.9754 39.7049C12.9577 39.8983 15.0851 39.9949 17.2608 39.9949C17.696 39.9949 18.1311 39.9949 18.5663 39.9949C20.742 39.9466 22.9177 39.8015 24.8034 39.5115C30.0735 38.7862 32.8294 36.6588 33.8447 32.8392C34.1832 31.6305 34.3283 30.0349 34.3283 28.4877C34.3283 27.2306 34.2316 26.0219 34.0382 25.0549Z" fill="#364E65"/>
<path d="M67.6895 28.9713H62.4677C62.4194 29.6482 62.371 30.2284 62.226 30.9053C61.7425 33.2744 60.6788 34.3381 58.0679 34.87C56.7624 35.1117 54.9735 35.1117 53.6197 35.1117C53.2329 35.1117 52.8945 35.1117 52.5077 35.1117C51.3956 35.1117 50.3803 35.0634 49.4617 34.9667C45.8838 34.6282 44.7234 33.5162 44.1432 30.0834C43.9014 28.5845 43.8531 27.0373 43.8531 25.6835H67.4961C67.4961 24.5231 67.5444 23.2177 67.5444 21.9606C67.5444 20.1233 67.4961 18.3344 67.351 16.9806C66.8675 13.0159 64.45 9.96989 57.9228 9.34135C56.7141 9.24465 55.1669 9.19629 53.6681 9.19629C51.9758 9.24464 50.3319 9.24463 48.6397 9.38968C43.3212 9.87318 39.5983 11.6138 38.9214 19.108C38.7764 20.7519 38.6797 22.7825 38.6797 24.8132C38.6797 26.989 38.8247 29.1647 39.0665 30.9053C39.8401 36.2721 42.1125 38.5929 46.9958 39.3181C49.2682 39.6566 51.6374 39.7049 53.9582 39.7049C55.6988 39.7049 57.4393 39.6566 59.1316 39.4148C64.305 38.6896 66.6741 36.6106 67.4961 31.2921C67.6411 30.5185 67.6895 29.6966 67.6895 28.9713ZM62.4677 21.4771H43.9014C43.9498 20.8486 43.9498 20.3167 43.9981 19.8332C44.2882 16.062 45.5453 14.3697 49.0749 13.9829C50.477 13.8379 52.2659 13.7895 53.7164 13.7895C55.0702 13.7895 56.6174 13.8379 57.6327 13.9346C60.9689 14.2246 62.1776 16.1103 62.4194 17.9959C62.4677 18.5278 62.5161 19.0113 62.5161 19.4948C62.5161 20.1233 62.4677 20.8002 62.4677 21.4771Z" fill="#364E65"/>
<path d="M100.519 39.1247V19.2046C100.519 15.1433 99.3102 12.0005 95.6356 10.5017C93.7983 9.77644 91.0907 9.38965 88.5765 9.38965C88.4315 9.38965 88.2381 9.38965 88.093 9.38965C86.2074 9.38965 84.2251 9.48635 82.4361 9.96985C80.8406 10.405 79.4868 11.2753 78.8099 12.8708V9.8248H73.4915V39.0764H78.9066V20.9452C78.9066 17.8509 79.922 15.6268 82.968 14.6598C84.3701 14.2246 85.9657 14.0796 87.4161 14.0796C89.1567 14.0796 91.0424 14.273 92.3962 14.8532C94.9587 15.9169 95.1037 18.5761 95.1037 20.1716V39.0764L100.519 39.1247Z" fill="#364E65"/>
<path d="M133.058 31.0987C133.058 30.035 132.962 28.9713 132.768 28.0527C131.946 23.9913 128.9 22.8309 125.177 22.3474C122.083 21.9606 117.296 21.6705 114.685 21.3321C112.848 21.0903 111.784 20.4134 111.446 19.1563C111.349 18.7695 111.301 18.286 111.301 17.8025C111.301 17.2707 111.349 16.7388 111.494 16.2554C111.929 14.7082 113.235 14.0796 115.314 13.7895C116.378 13.6445 117.683 13.5478 119.182 13.5478C120.777 13.5961 122.131 13.6445 123.243 13.8379C125.951 14.3214 126.676 15.5785 126.821 18.0443C126.821 18.141 126.821 18.2377 126.821 18.3827H131.995C131.946 15.8202 131.801 14.3697 131.076 13.0159C130.061 11.1786 128.175 9.92154 124.307 9.43805C122.76 9.24464 121.019 9.14795 119.327 9.09961C117.683 9.09961 116.088 9.19631 114.589 9.34136C110.866 9.7765 107.433 11.227 106.611 14.7565C106.418 15.5785 106.273 16.5455 106.224 17.5124C106.224 18.4794 106.273 19.4464 106.466 20.3167C107.046 23.3144 109.125 25.055 113.09 25.6835C115.846 26.1187 120.971 26.4088 124.065 26.7956C124.79 26.8923 125.371 27.0373 125.854 27.2307C127.015 27.7142 127.546 28.4878 127.788 29.5515C127.837 29.9383 127.885 30.4702 127.885 31.0504C127.885 31.6789 127.837 32.3074 127.691 32.6942C127.208 33.9513 126.338 34.7733 124.355 35.1117C123.678 35.2568 120.923 35.4502 119.859 35.4502C119.52 35.4502 119.182 35.4502 118.747 35.4502C117.683 35.4502 116.426 35.4502 115.169 35.2568C111.494 34.7249 111.108 32.5975 111.108 29.89H105.741C105.789 36.1754 107.626 39.028 114.492 39.7533C115.991 39.8983 117.78 39.8983 119.617 39.8983C121.841 39.8983 123.92 39.8016 125.661 39.5115C129.529 38.883 131.801 37.3842 132.671 34.3865C132.962 33.4195 133.058 32.2591 133.058 31.0987Z" fill="#364E65"/>
<path d="M166.323 28.9713H161.101C161.053 29.6482 161.004 30.2284 160.859 30.9053C160.376 33.2744 159.312 34.3381 156.701 34.87C155.396 35.1117 153.607 35.1117 152.253 35.1117C151.866 35.1117 151.528 35.1117 151.141 35.1117C150.029 35.1117 149.014 35.0634 148.095 34.9667C144.517 34.6282 143.357 33.5162 142.777 30.0834C142.535 28.5845 142.486 27.0373 142.486 25.6835H166.129C166.129 24.5231 166.178 23.2177 166.178 21.9606C166.178 20.1233 166.129 18.3344 165.984 16.9806C165.501 13.0159 163.083 9.96989 156.556 9.34135C155.347 9.24465 153.8 9.19629 152.301 9.19629C150.609 9.24464 148.965 9.24463 147.273 9.38968C141.955 9.87318 138.232 11.6138 137.555 19.108C137.41 20.7519 137.313 22.7825 137.313 24.8132C137.313 26.989 137.458 29.1647 137.7 30.9053C138.473 36.2721 140.746 38.5929 145.629 39.3181C147.902 39.6566 150.271 39.7049 152.592 39.7049C154.332 39.7049 156.073 39.6566 157.765 39.4148C162.938 38.6896 165.307 36.6106 166.129 31.2921C166.274 30.5185 166.323 29.6966 166.323 28.9713ZM161.101 21.4771H142.535C142.583 20.8486 142.583 20.3167 142.631 19.8332C142.922 16.062 144.179 14.3697 147.708 13.9829C149.11 13.8379 150.899 13.7895 152.35 13.7895C153.704 13.7895 155.251 13.8379 156.266 13.9346C159.602 14.2246 160.811 16.1103 161.053 17.9959C161.101 18.5278 161.149 19.0113 161.149 19.4948C161.149 20.1233 161.101 20.8002 161.101 21.4771Z" fill="#364E65"/>
<path d="M178.604 6.24673V0.686523H171.738V6.24673H178.604ZM177.927 10.2598H172.463V39.0762H177.927V10.2598Z" fill="#364E65"/>
</g>
<defs>
<clipPath id="clip0_608_4042">
<rect width="178.604" height="39.9852" fill="white" transform="translate(0 0.00976562)"/>
</clipPath>
</defs>
</svg>
